<?xml version="1.0" encoding="UTF-8"?><svg id="Layer_2" xmlns="http://www.w3.org/2000/svg" viewBox="0 0 59.22 59.2"><defs><style>.cls-1{stroke-width:2px;}.cls-1,.cls-2,.cls-3{fill:none;stroke:#000;stroke-miterlimit:10;}.cls-3{stroke-width:.5px;}</style></defs><g id="Layer_1-2"><path class="cls-1" d="M16.82,36.41l5.7,5.7c.34.34.88.34,1.22,0l30.98-30.98c.19-.19.33-.41.41-.66l2.83-8.32c.23-.67-.41-1.32-1.09-1.1l-8.59,2.82c-.13.04-.25.11-.34.21l-31.12,31.12c-.34.34-.34.88,0,1.22Z"/><line class="cls-2" x1="58.01" y1=".91" x2="19.68" y2="39.24"/><rect class="cls-1" x="8.23" y="38.71" width="20.21" height="3.76" rx="1.84" ry="1.84" transform="translate(2.59 82.25) rotate(-135)"/><rect class="cls-1" x="8.49" y="39.71" width="6.19" height="15.42" rx=".86" ry=".86" transform="translate(-13.74 89.14) rotate(-135)"/><rect class="cls-1" x="-.07" y="52.46" width="10.28" height="2.95" rx="1.47" ry="1.47" transform="translate(-29.48 95.66) rotate(-135)"/><line class="cls-3" x1="18.83" y1="44.06" x2="10.08" y2="44.06"/><line class="cls-3" x1="16.21" y1="46.88" x2="8.33" y2="46.88"/><line class="cls-3" x1="13.58" y1="49.7" x2="4.83" y2="49.7"/><line class="cls-3" x1="10.95" y1="52.51" x2="5.7" y2="52.43"/><path class="cls-1" d="M36.46,29.44l5.94,5.94c.34.34.34.88,0,1.22l-5.7,5.7c-.34.34-.88.34-1.22,0l-5.96-5.96"/><path class="cls-1" d="M22.53,29.34L4.36,11.18c-.09-.09-.16-.21-.21-.33L1.27,2.33c-.23-.67.41-1.32,1.09-1.1l8.59,2.82c.13.04.25.11.34.21l18.18,18.18"/><line class="cls-2" x1="32.94" y1="32.84" x2="39.54" y2="39.43"/><line class="cls-2" x1="1.21" y1="1.1" x2="25.97" y2="25.87"/><rect class="cls-1" x="30.74" y="38.92" width="20.21" height="3.63" rx="1.81" ry="1.81" transform="translate(-16.84 40.81) rotate(-45)"/><rect class="cls-1" x="44.48" y="39.78" width="6.19" height="15.55" rx=".86" ry=".86" transform="translate(-19.7 47.57) rotate(-45)"/><rect class="cls-1" x="49.01" y="52.65" width="10.28" height="2.95" rx="1.47" ry="1.47" transform="translate(-22.42 54.14) rotate(-45)"/><line class="cls-3" x1="40.38" y1="44.25" x2="49.14" y2="44.25"/><line class="cls-3" x1="43.01" y1="47.07" x2="50.89" y2="47.07"/><line class="cls-3" x1="45.63" y1="49.89" x2="54.39" y2="49.89"/><line class="cls-3" x1="48.26" y1="52.71" x2="53.51" y2="52.62"/><line class="cls-3" x1="41.32" y1="42.71" x2="52.17" y2="53.55"/><line class="cls-3" x1="34" y1="47.86" x2="48.36" y2="33.49"/><line class="cls-3" x1="5.76" y1="51.99" x2="16.26" y2="41.49"/><line class="cls-3" x1="11.25" y1="33.75" x2="25.2" y2="47.69"/><line class="cls-3" x1="18.69" y1="37.73" x2="54.51" y2="1.91"/><line class="cls-3" x1="38.26" y1="40.48" x2="32.24" y2="34.46"/><line class="cls-3" x1="24.62" y1="26.75" x2="1.87" y2="3.99"/><line class="cls-3" x1="20.5" y1="31.27" x2="35.1" y2="31.27"/><line class="cls-3" x1="23.17" y1="28.85" x2="37.1" y2="28.85"/><line class="cls-3" x1="35.18" y1="16.51" x2="49.45" y2="16.51"/><line class="cls-3" x1="8.25" y1="16.38" x2="22.36" y2="16.38"/></g></svg>