<svg width="148" height="46" viewBox="0 0 148 46" fill="none" xmlns="http://www.w3.org/2000/svg">
<g id="Layer_1" clip-path="url(#clip0_31_6718)">
<path id="Vector" d="M56.5551 18.8752C57.6927 18.8893 58.7881 19.305 59.6401 20.0571C59.6541 20.0758 59.6682 20.0898 59.6869 20.0992C59.6916 20.0992 59.6963 20.1085 59.7009 20.1132C59.8414 20.2206 60.0474 20.1973 60.155 20.0524L61.3769 18.7912L61.4003 18.7678C61.536 18.609 61.5173 18.366 61.3581 18.2306C60.0567 16.9926 58.3106 16.32 56.5129 16.362V16.3994H56.1853C55.9137 16.3854 55.6422 16.3854 55.3707 16.3994C51.4758 16.7591 48.5734 20.1552 48.8355 24.0512C49.1024 28.0173 52.5385 31.0163 56.5176 30.7501C58.32 30.7594 60.0567 30.0634 61.3488 28.8067C61.4939 28.6573 61.4939 28.419 61.3488 28.2695L60.1082 26.9895C59.9631 26.8634 59.7524 26.8634 59.6073 26.9895C58.7553 27.7136 57.6739 28.12 56.5551 28.1294C54.1067 28.05 52.1453 26.0926 52.0657 23.6495C51.9861 21.0942 53.9944 18.9547 56.5551 18.8752Z" fill="#6B7280"/>
<path id="Vector_2" d="M70.7864 16.5629C70.7349 16.4227 70.5991 16.334 70.4493 16.3433H70.248C70.1029 16.3433 69.9718 16.4321 69.9063 16.5629L63.6801 30.0166C63.6473 30.0727 63.6333 30.1428 63.638 30.2082C63.6567 30.3997 63.8252 30.5398 64.0172 30.5258H65.7586C66.0161 30.5352 66.2502 30.381 66.3438 30.1428L67.3222 27.9846H73.3096L74.288 30.1428C74.377 30.3857 74.6157 30.5398 74.8732 30.5258H76.6193C76.6896 30.5305 76.7598 30.5165 76.8206 30.4838C76.9845 30.3904 77.0453 30.1848 76.9564 30.0166L70.7864 16.5629ZM68.3193 25.7609L70.2902 21.3604H70.3276L72.3312 25.7609H68.3193Z" fill="#6B7280"/>
<path id="Vector_3" d="M91.726 16.5442H89.8769C89.6663 16.5442 89.493 16.717 89.493 16.9272V25.177L81.1602 16.3433H80.664C80.458 16.3433 80.2895 16.4975 80.2802 16.703V30.1568C80.2848 30.367 80.4534 30.5352 80.664 30.5352H82.4897C82.7004 30.5352 82.8689 30.367 82.8689 30.1568V21.5613L91.2579 30.75H91.726C91.9367 30.75 92.1052 30.5819 92.1099 30.3717V16.9272C92.1099 16.717 91.9367 16.5442 91.726 16.5442Z" fill="#6B7280"/>
<path id="Vector_4" d="M102.371 16.5442H97.6198C97.4185 16.5582 97.264 16.7263 97.264 16.9272V30.1755C97.264 30.3763 97.4185 30.5445 97.6198 30.5585H102.694C106.571 30.4698 109.646 27.2605 109.557 23.3878C109.468 19.5199 106.252 16.4507 102.371 16.5442ZM106.636 23.7849C106.585 26.2187 104.567 28.148 102.128 28.0967H99.8388V18.964H102.385C104.82 19.0574 106.725 21.0988 106.636 23.528V23.7849Z" fill="#6B7280"/>
<path id="Vector_5" d="M119.735 16.362H119.692C115.746 16.3713 112.553 19.5619 112.544 23.4953C112.535 27.4474 115.732 30.6613 119.692 30.6707C123.653 30.68 126.874 27.4894 126.883 23.5373C126.892 19.5853 123.695 16.3713 119.735 16.362ZM119.735 28.1574C117.216 28.1341 115.18 26.102 115.156 23.5887V23.5233C115.175 20.9821 117.253 18.936 119.8 18.9547C122.347 18.9733 124.397 21.0475 124.378 23.5887C124.36 26.13 122.281 28.1761 119.735 28.1574Z" fill="#6B7280"/>
<path id="Vector_6" d="M141.512 20.8419C141.493 18.4548 139.541 16.5302 137.149 16.5442H131.428C131.218 16.5442 131.049 16.717 131.049 16.9272V30.1568C131.045 30.367 131.213 30.5352 131.424 30.5352H133.268C133.479 30.5352 133.647 30.367 133.647 30.1568V25.0602H135.871L138.539 30.353C138.6 30.4698 138.727 30.5398 138.858 30.5352H140.964C141.039 30.5352 141.114 30.5165 141.175 30.4744C141.348 30.3623 141.4 30.1334 141.292 29.9559L138.544 24.878C140.29 24.182 141.512 22.6825 141.512 20.8419ZM136.938 22.9207H133.661V18.9406H136.938C138.015 18.95 138.895 19.8095 138.919 20.884C138.919 21.9864 138.043 22.888 136.938 22.9207Z" fill="#6B7280"/>
<path id="Vector_7" d="M27.9754 11.6999L27.8022 11.7699L27.9192 11.7045L27.9333 11.6952L27.9426 8.59336L27.9192 8.61672V4.15548L21.1828 0.38562L14.4229 4.14614V11.6905L11.6562 10.1349L11.6656 10.1676L7.6677 7.93469L0.907837 11.6905L1.17467 11.84L0.907837 11.7045V19.2443L7.65834 23.0048L6.8906 23.4346L4.89166 24.5417H4.90103L0.907837 26.7747V34.3237L7.65834 38.0609L14.4135 34.291L14.671 34.1696L14.4276 34.305V34.3144V37.4022V37.3975V41.8634L21.1874 45.6286H21.1921L27.9426 41.8681H27.9473V34.3284H27.9286L27.9473 34.3097V34.3284L34.6931 38.0936H34.7072L41.453 34.3144V26.784L34.7072 23.0188L41.453 19.2536V11.7045L34.7072 7.93469L27.9801 11.6999H27.9754ZM14.4229 26.784V26.77V19.2396L21.164 15.4791H21.1687L27.9145 19.2349V26.7933L21.1781 30.5539V30.5632H21.1687H21.164L21.1828 30.5398L21.1547 30.5585L14.4182 26.7933L14.4229 26.784Z" fill="#6B7280"/>
<path id="Vector_8" d="M144.756 16.8852H143.277C143.24 16.8852 143.211 16.9132 143.211 16.9506V17.1421C143.211 17.1421 143.211 17.1421 143.211 17.1468C143.211 17.1795 143.244 17.2075 143.277 17.2029H143.839V19.2162C143.839 19.2162 143.839 19.2162 143.839 19.2209C143.839 19.2536 143.867 19.2816 143.9 19.2816H144.129C144.166 19.2816 144.194 19.2536 144.194 19.2162V17.2029H144.756C144.789 17.2029 144.817 17.1748 144.822 17.1421V16.9506C144.822 16.9132 144.794 16.8852 144.756 16.8852Z" fill="#6B7280"/>
<path id="Vector_9" d="M147.172 16.9132C147.167 16.8852 147.139 16.8665 147.111 16.8665H147.06C147.032 16.8665 147.008 16.8805 146.999 16.9039L146.282 18.651L145.562 16.9039C145.562 16.8665 145.529 16.8665 145.505 16.8665H145.454C145.421 16.8665 145.393 16.8852 145.388 16.9132L144.967 19.1976C144.967 19.1976 144.967 19.2116 144.967 19.2209C144.967 19.2536 144.995 19.2817 145.033 19.277H145.257C145.29 19.277 145.313 19.2536 145.323 19.2256L145.566 17.7074L146.17 19.2817C146.179 19.305 146.203 19.319 146.231 19.319H146.292C146.32 19.319 146.343 19.305 146.353 19.2817L146.971 17.7074L147.233 19.2256C147.242 19.2536 147.266 19.277 147.298 19.277H147.537C147.603 19.277 147.603 19.2443 147.603 19.1976L147.177 16.9132H147.172Z" fill="#6B7280"/>
</g>
<defs>
<clipPath id="clip0_31_6718">
<rect width="146.69" height="45.2477" fill="white" transform="translate(0.907837 0.38562)"/>
</clipPath>
</defs>
</svg>
