<?xml version="1.0" encoding="UTF-8"?><svg id="Layer_2" xmlns="http://www.w3.org/2000/svg" viewBox="0 0 59.1 60.23"><defs><style>.cls-1{stroke-width:.5px;}.cls-1,.cls-2,.cls-3{stroke:#000;stroke-miterlimit:10;}.cls-1,.cls-3{fill:none;stroke-linecap:round;}.cls-2{fill:#f9fafb;stroke-width:2px;}.cls-4{fill:#000;stroke-width:0px;}</style></defs><g id="Layer_1-2"><polygon class="cls-1" points="56.5 26.92 2.5 22.92 45.5 55.92 56.5 42.92 2.5 49.92 44.5 1.92 13.38 46.1 56.5 26.92"/><polygon class="cls-1" points="35.5 52.92 55.5 38.92 1.5 12.92 34.5 1.92 3.5 44.92 46.13 25.55 36.5 4.92 15.5 46.92 49.58 27.91 35.5 52.92"/><polygon class="cls-3" points="53.5 40.92 .5 24.92 .5 32.92 55.5 35.92 47.78 29.91 57.5 20.92 7.5 29.92 53.5 40.92"/><polygon class="cls-3" points="33.5 45.92 3.5 54.92 18.52 25.58 5.5 7.92 53.5 48.92 32.5 56.92 15.5 1.92 42.5 23.92 56.5 14.92 2.5 36.92 46.5 46.92 48.5 3.92 7.5 27.92 33.5 45.92"/><polygon class="cls-3" points="10 7.42 27 58.42 40.5 2.92 54 58.42 3 20.42 26 1.42 10 56.42 56 7.42 10 7.42"/><path class="cls-2" d="M29,16.11c-12.46,0-22.88,5.83-25.56,13.65,2.68,7.82,13.1,13.65,25.56,13.65s22.88-5.83,25.56-13.65c-2.68-7.82-13.1-13.65-25.56-13.65Z"/><circle class="cls-2" cx="29" cy="29.77" r="10.5"/><circle class="cls-4" cx="29" cy="29.77" r="5.5"/></g></svg>