<?xml version="1.0" encoding="UTF-8"?><svg id="Layer_2" xmlns="http://www.w3.org/2000/svg" viewBox="0 0 165.23 147.97"><defs><style>.cls-1{fill:none;stroke:#f3f3f3;stroke-linecap:round;stroke-miterlimit:10;stroke-width:6.4px;}</style></defs><g id="_ëÎÓÈ_1"><path class="cls-1" d="M142.14,3.2H23.08C12.1,3.2,3.2,12.1,3.2,23.08v65.62c0,10.98,8.9,19.88,19.88,19.88h39.5c.59,0,1.12.35,1.36.88l17.71,34.71c.4.79,1.53.79,1.94,0l17.71-34.71c.24-.54.77-.88,1.36-.88h39.5c10.98,0,19.88-8.9,19.88-19.88V23.08c0-10.98-8.9-19.88-19.88-19.88Z"/><line class="cls-1" x1="29.84" y1="80.25" x2="135.39" y2="80.25"/><line class="cls-1" x1="29.84" y1="56.3" x2="135.39" y2="56.3"/><line class="cls-1" x1="76.07" y1="32.35" x2="135.39" y2="32.35"/></g></svg>