<?xml version="1.0" encoding="UTF-8"?><svg id="Layer_2" xmlns="http://www.w3.org/2000/svg" viewBox="0 0 58.7 58"><defs><style>.cls-1{stroke-width:.5px;}.cls-1,.cls-2,.cls-3,.cls-4{fill:none;stroke:#000;stroke-miterlimit:10;}.cls-1,.cls-2,.cls-4{stroke-linecap:round;}.cls-2,.cls-3{stroke-width:2px;}</style></defs><g id="Layer_1-2"><line class="cls-2" x1="1" y1="39.91" x2="57.64" y2="39.91"/><line class="cls-2" x1="5.12" y1="57" x2="5.12" y2="34.42"/><line class="cls-2" x1="11.18" y1="39.58" x2="11.18" y2="31.12"/><line class="cls-2" x1="17.24" y1="39.58" x2="17.24" y2="14.88"/><line class="cls-2" x1="23.3" y1="39.58" x2="23.3" y2="31.43"/><line class="cls-2" x1="29.36" y1="39.58" x2="29.36" y2="34.1"/><line class="cls-2" x1="35.42" y1="39.58" x2="35.42" y2="31.12"/><line class="cls-2" x1="41.48" y1="39.58" x2="41.48" y2="14.29"/><line class="cls-2" x1="47.54" y1="39.58" x2="47.54" y2="31.27"/><line class="cls-2" x1="53.6" y1="56.89" x2="53.6" y2="34.42"/><path class="cls-2" d="M5.08,53.53c5.6-8.25,14.37-13.56,24.24-13.56s18.64,5.31,24.24,13.56"/><path class="cls-2" d="M17.21,17.67c0,9.44-7.26,17.09-16.21,17.09"/><path class="cls-2" d="M17.27,17.67c0,7.95,5,14.43,11.97,16.34"/><path class="cls-2" d="M41.43,17.47c0,7.95-5.15,14.62-12.12,16.54"/><path class="cls-2" d="M41.49,17.67c0,9.44,7.26,17.09,16.21,17.09"/><line class="cls-2" x1="14.44" y1="14.21" x2="19.62" y2="14.21"/><line class="cls-2" x1="38.9" y1="14.21" x2="44.08" y2="14.21"/><path class="cls-3" d="M1.28,5.68l10.04,3.86c.3.12.63-.09.63-.39V1.42c0-.3-.33-.51-.63-.39L1.28,4.89c-.38.14-.38.64,0,.78Z"/><path class="cls-3" d="M57.42,4.89l-10.04-3.86c-.3-.12-.63.09-.63.39v7.72c0,.3.33.51.63.39l10.04-3.86c.38-.14.38-.64,0-.78Z"/><line class="cls-3" x1="11.91" y1="5.29" x2="46.3" y2="5.29"/><line class="cls-4" x1="1.86" y1="37.54" x2="57.01" y2="37.54"/><line class="cls-1" x1="2.53" y1="5.26" x2="11.43" y2="5.26"/><line class="cls-1" x1="46.85" y1="5.12" x2="55.75" y2="5.12"/><line class="cls-4" x1="15.95" y1="8.48" x2="42.27" y2="8.48"/></g></svg>