<?xml version="1.0" encoding="UTF-8"?><svg id="Layer_2" xmlns="http://www.w3.org/2000/svg" viewBox="0 0 58.95 58"><defs><style>.cls-1{stroke-width:.5px;}.cls-1,.cls-2,.cls-3,.cls-4{fill:none;stroke:#000;stroke-miterlimit:10;}.cls-1,.cls-2,.cls-4{stroke-linecap:round;}.cls-2,.cls-3{stroke-width:2px;}</style></defs><g id="Layer_1-2"><line class="cls-2" x1="1.21" y1="39.91" x2="57.85" y2="39.91"/><line class="cls-2" x1="5.33" y1="57" x2="5.33" y2="34.42"/><line class="cls-2" x1="11.39" y1="39.58" x2="11.39" y2="31.12"/><line class="cls-2" x1="17.45" y1="39.58" x2="17.45" y2="14.88"/><line class="cls-2" x1="23.51" y1="39.58" x2="23.51" y2="31.43"/><line class="cls-2" x1="29.57" y1="39.58" x2="29.57" y2="34.1"/><line class="cls-2" x1="35.63" y1="39.58" x2="35.63" y2="31.12"/><line class="cls-2" x1="41.7" y1="39.58" x2="41.7" y2="14.29"/><line class="cls-2" x1="47.76" y1="39.58" x2="47.76" y2="31.27"/><line class="cls-2" x1="53.82" y1="56.89" x2="53.82" y2="34.42"/><path class="cls-2" d="M5.29,53.53c5.6-8.25,14.37-13.56,24.24-13.56s18.64,5.31,24.24,13.56"/><path class="cls-2" d="M17.43,17.67c0,9.44-7.26,17.09-16.21,17.09"/><path class="cls-2" d="M17.48,17.67c0,7.95,5,14.43,11.97,16.34"/><path class="cls-2" d="M41.65,17.47c0,7.95-5.15,14.62-12.12,16.54"/><path class="cls-2" d="M41.7,17.67c0,9.44,7.26,17.09,16.21,17.09"/><line class="cls-2" x1="14.66" y1="14.21" x2="19.84" y2="14.21"/><line class="cls-2" x1="39.11" y1="14.21" x2="44.29" y2="14.21"/><path class="cls-3" d="M1.49,5.68l10.04,3.86c.3.12.63-.09.63-.39V1.42c0-.3-.33-.51-.63-.39L1.49,4.89c-.38.14-.38.64,0,.78Z"/><path class="cls-3" d="M57.63,4.89l-10.04-3.86c-.3-.12-.63.09-.63.39v7.72c0,.3.33.51.63.39l10.04-3.86c.38-.14.38-.64,0-.78Z"/><line class="cls-3" x1="12.12" y1="5.29" x2="46.52" y2="5.29"/><line class="cls-4" x1="2.07" y1="37.54" x2="57.22" y2="37.54"/><line class="cls-1" x1="2.74" y1="5.26" x2="11.64" y2="5.26"/><line class="cls-1" x1="47.07" y1="5.12" x2="55.97" y2="5.12"/><line class="cls-4" x1="16.16" y1="8.48" x2="42.48" y2="8.48"/><line class="cls-2" x1="1" y1="57" x2="57.95" y2="57"/><line class="cls-4" x1="9.26" y1="53.79" x2="49.5" y2="53.79"/><line class="cls-4" x1="12.53" y1="50.8" x2="46.34" y2="50.8"/><line class="cls-4" x1="53.86" y1="50.62" x2="58.14" y2="50.62"/><line class="cls-4" x1=".88" y1="50.62" x2="5.17" y2="50.62"/><line class="cls-4" x1=".98" y1="53.83" x2="5.26" y2="53.83"/><line class="cls-4" x1="53.72" y1="53.67" x2="58" y2="53.67"/><line class="cls-4" x1="16.58" y1="47.86" x2="43.06" y2="47.86"/></g></svg>