<?xml version="1.0" encoding="UTF-8"?><svg id="Layer_2" xmlns="http://www.w3.org/2000/svg" viewBox="0 0 189.18 128.57"><defs><style>.cls-1{fill:none;stroke:#f3f3f3;stroke-linecap:round;stroke-miterlimit:10;stroke-width:6.4px;}</style></defs><g id="_ëÎÓÈ_1"><path class="cls-1" d="M122.4,104.73h32.17c17.35,0,31.41-14.06,31.41-31.41s-14.06-31.41-31.41-31.41c-2.04,0-4.03.2-5.96.57.09-1.05.15-2.11.15-3.18,0-19.94-16.16-36.1-36.1-36.1-14.05,0-26.21,8.03-32.18,19.75-4.39-2.23-9.35-3.5-14.61-3.5-17.09,0-31.07,13.3-32.18,30.11-.93-.09-1.87-.14-2.83-.14-15.28,0-27.66,12.38-27.66,27.66s12.39,27.66,27.66,27.66h34.74"/><path class="cls-1" d="M106.78,125.37v-39.47h10.7c.77,0,1.22-.88.75-1.5l-22.61-30.13c-.37-.49-1.1-.5-1.48-.03l-24.39,30.13c-.5.61-.06,1.53.73,1.53h10.61v39.47"/></g></svg>