<?xml version="1.0" encoding="UTF-8"?><svg id="Layer_2" xmlns="http://www.w3.org/2000/svg" viewBox="0 0 100.15 160.81"><defs><style>.cls-1{fill:none;stroke:#f3f3f3;stroke-linecap:round;stroke-miterlimit:10;stroke-width:6.4px;}</style></defs><g id="_ëÎÓÈ_1"><path class="cls-1" d="M55.06,3.76v70.52c0,.25.15.46.37.56,5.22,2.34,8.65,7.97,7.6,14.26-.87,5.21-4.96,9.51-10.13,10.59-8.5,1.77-15.98-4.67-15.98-12.85,0-5.35,3.2-9.95,7.79-12,.22-.1.37-.32.37-.56V3.76c0-.31-.25-.56-.56-.56h-5.75c-.29,0-.55.17-.66.43L3.86,86.79c-.89,2.16-.89,4.59.01,6.75l16.35,39.27h59.69l16.35-39.27c.9-2.16.9-4.59.01-6.75L62.04,3.63c-.12-.26-.38-.43-.66-.43h-5.75c-.31,0-.56.25-.56.56Z"/><path class="cls-1" d="M79.81,132.81v21.46c0,1.84-1.49,3.34-3.34,3.34H23.56c-1.84,0-3.34-1.49-3.34-3.34v-21.46"/></g></svg>