<?xml version="1.0" encoding="UTF-8"?><svg id="Layer_2" xmlns="http://www.w3.org/2000/svg" viewBox="0 0 171.27 191.14"><defs><style>.cls-1{fill:none;stroke:#f3f3f3;stroke-linecap:round;stroke-miterlimit:10;stroke-width:6.4px;}</style></defs><g id="_ëÎÓÈ_1"><rect class="cls-1" x="95.23" y="50.5" width="72.85" height="137.44" rx="11.58" ry="11.58"/><line class="cls-1" x1="95.23" y1="70.29" x2="168.07" y2="70.29"/><line class="cls-1" x1="95.23" y1="169.2" x2="168.07" y2="169.2"/><path class="cls-1" d="M133.49,178.64c0,1.02-.82,1.84-1.84,1.84s-1.84-.82-1.84-1.84.82-1.84,1.84-1.84,1.84.82,1.84,1.84Z"/><line class="cls-1" x1="128.31" y1="59.92" x2="134.99" y2="59.92"/><path class="cls-1" d="M95.78,179.9H11.69c-4.69,0-8.49-3.8-8.49-8.49V11.69C3.2,7,7,3.2,11.69,3.2h103.21c4.69,0,8.49,3.8,8.49,8.49v38.81"/><line class="cls-1" x1="3.2" y1="25.74" x2="123.39" y2="25.74"/><line class="cls-1" x1="3.2" y1="155.36" x2="94.37" y2="155.36"/><line class="cls-1" x1="56.49" y1="167.83" x2="66.82" y2="167.83"/><path class="cls-1" d="M63.79,14.62c0,.28-.22.5-.5.5s-.5-.22-.5-.5.22-.5.5-.5.5.22.5.5Z"/></g></svg>