<?xml version="1.0" encoding="UTF-8"?><svg id="Layer_2" xmlns="http://www.w3.org/2000/svg" viewBox="0 0 55.52 58.01"><defs><style>.cls-1,.cls-2{stroke-linecap:round;}.cls-1,.cls-2,.cls-3,.cls-4,.cls-5{fill:none;stroke:#000;stroke-miterlimit:10;}.cls-1,.cls-5{stroke-width:.5px;}.cls-2,.cls-3{stroke-width:2px;}</style></defs><g id="Layer_1-2"><path class="cls-3" d="M25.98,2.29L8.33,48.15c-.53,1.37.41,2.87,1.79,2.87h35.3c1.38,0,2.32-1.5,1.79-2.87L29.57,2.29c-.66-1.71-2.93-1.71-3.59,0Z"/><line class="cls-4" x1="27.92" y1="2.01" x2="27.92" y2="52.01"/><path class="cls-3" d="M24.52,51.01h6.5v4.27c0,.95-.77,1.73-1.73,1.73h-3.04c-.95,0-1.73-.77-1.73-1.73v-4.27h0Z"/><line class="cls-4" x1="16.02" y1="50.57" x2="27.57" y2=".9"/><line class="cls-4" x1="40.02" y1="51.19" x2="28.74" y2="1.52"/><line class="cls-5" x1="8.02" y1="48.51" x2="47.02" y2="48.51"/><line class="cls-5" x1="10.27" y1="42.38" x2="44.77" y2="42.38"/><line class="cls-5" x1="12.52" y1="36.24" x2="42.52" y2="36.24"/><line class="cls-5" x1="14.77" y1="30.1" x2="40.27" y2="30.1"/><line class="cls-5" x1="17.02" y1="23.96" x2="38.02" y2="23.96"/><line class="cls-5" x1="19.27" y1="17.82" x2="35.77" y2="17.82"/><line class="cls-5" x1="21.52" y1="11.68" x2="33.52" y2="11.68"/><path class="cls-3" d="M43.51,9.35l-3.86,10.04c-.12.3.09.63.39.63h7.72c.3,0,.51-.33.39-.63l-3.86-10.04c-.14-.38-.64-.38-.78,0Z"/><line class="cls-2" x1="43.52" y1="20.01" x2="43.52" y2="57.01"/><path class="cls-3" d="M3.75,23.21l-2.72,7.08c-.08.21.06.44.28.44h5.45c.21,0,.36-.23.28-.44l-2.72-7.08c-.1-.26-.45-.26-.55,0Z"/><line class="cls-2" x1="3.75" y1="30.73" x2="3.75" y2="55.01"/><path class="cls-3" d="M11.18,1.35l-3.86,10.04c-.12.3.09.63.39.63h7.72c.3,0,.51-.33.39-.63L11.97,1.35c-.14-.38-.64-.38-.78,0Z"/><line class="cls-2" x1="11.57" y1="12.01" x2="11.57" y2="39.49"/><path class="cls-3" d="M51.22,29.5l-2.72,7.08c-.08.21.06.44.28.44h5.45c.21,0,.36-.23.28-.44l-2.72-7.08c-.1-.26-.45-.26-.55,0Z"/><line class="cls-2" x1="51.23" y1="38.01" x2="51.23" y2="54.01"/><line class="cls-1" x1="5.82" y1="30.87" x2="5.82" y2="48.51"/><line class="cls-1" x1="13.61" y1="11.63" x2="13.61" y2="24.51"/><line class="cls-1" x1="45.66" y1="19.86" x2="45.66" y2="38.51"/></g></svg>