<?xml version="1.0" encoding="UTF-8"?><svg id="Layer_2" xmlns="http://www.w3.org/2000/svg" viewBox="0 0 151.95 177.37"><defs><style>.cls-1{fill:none;stroke:#f3f3f3;stroke-linecap:round;stroke-miterlimit:10;stroke-width:6.4px;}</style></defs><g id="_ëÎÓÈ_1"><path class="cls-1" d="M86.98,165.76c0,4.64-4.93,8.4-11.01,8.4s-11.01-3.76-11.01-8.4"/><path class="cls-1" d="M96.19,139.67v-1.24c0-22.17,24.4-35.72,23.37-61.74-.74-22.35-18.59-40.88-40.8-42.27-.93-.06-1.86-.09-2.78-.09s-1.85.03-2.78.09c-22.2,1.39-40.06,19.91-40.8,42.27-1.03,26.02,23.37,39.57,23.37,61.74v16.97c0,4.86,3.92,8.81,8.76,8.81h22.84c4.83,0,8.74-3.92,8.76-8.78l.06-15.76Z"/><line class="cls-1" x1="75.97" y1="21.33" x2="75.97" y2="3.2"/><line class="cls-1" x1="44.07" y1="31.23" x2="33.91" y2="16.25"/><line class="cls-1" x1="23.25" y1="57.48" x2="6.47" y2="50.87"/><line class="cls-1" x1="20.77" y1="90.97" x2="3.2" y2="95.01"/><line class="cls-1" x1="37.49" y1="120.03" x2="25.24" y2="133.33"/><line class="cls-1" x1="107.88" y1="31.23" x2="118.04" y2="16.25"/><line class="cls-1" x1="128.69" y1="57.48" x2="145.48" y2="50.87"/><line class="cls-1" x1="131.17" y1="90.97" x2="148.75" y2="95.01"/><line class="cls-1" x1="114.46" y1="120.03" x2="126.71" y2="133.33"/><line class="cls-1" x1="96.19" y1="139.67" x2="55.76" y2="139.67"/></g></svg>