<?xml version="1.0" encoding="UTF-8"?><svg id="Layer_2" xmlns="http://www.w3.org/2000/svg" viewBox="0 0 164.5 139.89"><defs><style>.cls-1{fill:none;stroke:#f3f3f3;stroke-linecap:round;stroke-miterlimit:10;stroke-width:6.4px;}</style></defs><g id="_ëÎÓÈ_1"><path class="cls-1" d="M143.27,3.91c-20.94,15.19-43.81,26.18-68.83,32.51v50.19c25.02,6.32,47.89,17.31,68.83,32.51,2.59,1.88,6.04-.2,6.04-3.62V7.53c0-3.43-3.44-5.5-6.04-3.62Z"/><path class="cls-1" d="M149.32,80.21c7.22-4.09,11.97-11.02,11.97-18.89s-4.77-14.82-12.02-18.91"/><path class="cls-1" d="M29.31,86.57c1.46,17.07,7.68,32.11,14.46,45.46,2.44,4.8,8.15,6.14,12.13,2.83l3.58-2.98c2.05-1.71,2.65-4.83,1.39-7.3-5.9-11.56-11.64-23.99-13.43-38.33"/><path class="cls-1" d="M21.7,36.42h52.73v49.83H21.7c-10.21,0-18.5-8.29-18.5-18.5v-12.83c0-10.21,8.29-18.5,18.5-18.5Z"/></g></svg>