<?xml version="1.0" encoding="UTF-8"?><svg id="Layer_2" xmlns="http://www.w3.org/2000/svg" viewBox="0 0 56 59"><defs><style>.cls-1{stroke-dasharray:0 0 0 0 5 3 7 5;}.cls-1,.cls-2{stroke-linecap:round;}.cls-1,.cls-2,.cls-3{fill:none;stroke:#000;stroke-miterlimit:10;}.cls-2,.cls-3{stroke-width:2px;}</style></defs><g id="Layer_1-2"><path class="cls-2" d="M20.71,35.05c-1.66-1.43-2.71-3.55-2.71-5.91v-10.38c0-4.31,3.5-7.81,7.81-7.81h4.38c4.31,0,7.81,3.5,7.81,7.81v10.38c0,2.36-1.05,4.48-2.71,5.91"/><path class="cls-2" d="M20.66,35.02L3.49,44.56c-1.54.85-2.49,2.48-2.49,4.24v4.36c0,2.67,2.16,4.84,4.83,4.85,7.77.01,22.17-.05,22.17-.05,0,0,14.41.07,22.17.05,2.67,0,4.83-2.17,4.83-4.85v-4.36c0-1.76-.95-3.38-2.49-4.24l-17.23-9.57"/><rect class="cls-2" x="20.69" y="24.94" width="14.62" height="19" rx="5.71" ry="5.71"/><path class="cls-2" d="M23.21,42.97l-11.2,6.22c-1,.56-1.63,1.62-1.63,2.76v2.84c0,1.74,1.41,3.16,3.15,3.16,5.07,0,14.46-.03,14.46-.03,0,0,9.4.04,14.46.03,1.74,0,3.15-1.42,3.15-3.16v-2.84c0-1.15-.62-2.21-1.63-2.76l-11.24-6.24"/><path class="cls-3" d="M12.46,1.28l-3.86,10.04c-.12.3.09.63.39.63h7.72c.3,0,.51-.33.39-.63L13.24,1.28c-.14-.38-.64-.38-.78,0Z"/><line class="cls-3" x1="13" y1="11.94" x2="13" y2="38.94"/><line class="cls-3" x1="45.61" y1="28.44" x2="45.61" y2="53.44"/><path class="cls-3" d="M45.22,17.28l-3.86,10.04c-.12.3.09.63.39.63h7.72c.3,0,.51-.33.39-.63l-3.86-10.04c-.14-.38-.64-.38-.78,0Z"/><line class="cls-1" x1="7.15" y1="16.44" x2="7.15" y2="41.44"/><line class="cls-1" x1="2.79" y1="29.44" x2="2.79" y2="45.44"/><line class="cls-1" x1="53.5" y1="34.44" x2="53.5" y2="44.44"/><line class="cls-1" x1="49.5" y1="6.44" x2="49.5" y2="41.44"/><line class="cls-1" x1="41.5" y1="3.44" x2="41.5" y2="38.44"/><line class="cls-1" x1="28" y1="1.55" x2="28" y2="10.83"/><line class="cls-1" x1="34.15" y1="6.1" x2="34.15" y2="11.86"/><line class="cls-1" x1="21.97" y1="3.26" x2="21.97" y2="12.23"/></g></svg>