<svg width="436" height="104" viewBox="0 0 436 104" fill="none" xmlns="http://www.w3.org/2000/svg">
<g clip-path="url(#clip0_93_204109)">
<path d="M51.8537 18.2291C52.9137 18.2422 53.9344 18.6296 54.7284 19.3304C54.7415 19.3479 54.7545 19.3609 54.772 19.3696C54.7764 19.3696 54.7807 19.3783 54.7851 19.3827C54.9159 19.4828 55.1079 19.461 55.2082 19.3261L56.3468 18.1508L56.3686 18.129C56.4951 17.981 56.4776 17.7547 56.3293 17.6284C55.1166 16.4749 53.4895 15.8481 51.8144 15.8872V15.9221H51.5091C51.256 15.909 51.003 15.909 50.75 15.9221C47.1207 16.2572 44.4161 19.4219 44.6604 23.0523C44.909 26.748 48.1109 29.5426 51.8188 29.2945C53.4982 29.3032 55.1166 28.6546 56.3206 27.4836C56.4558 27.3443 56.4558 27.1223 56.3206 26.983L55.1646 25.7903C55.0294 25.6728 54.8331 25.6728 54.6978 25.7903C53.9039 26.465 52.8962 26.8437 51.8537 26.8524C49.5722 26.7784 47.7445 24.9545 47.6703 22.6779C47.5961 20.2968 49.4675 18.3031 51.8537 18.2291Z" fill="#6B7280"/>
<path d="M65.1148 16.0744C65.0668 15.9438 64.9403 15.8611 64.8007 15.8698H64.6132C64.4779 15.8698 64.3558 15.9525 64.2947 16.0744L58.493 28.611C58.4624 28.6633 58.4493 28.7286 58.4537 28.7895C58.4712 28.968 58.6282 29.0986 58.807 29.0855H60.4298C60.6697 29.0942 60.8878 28.9506 60.9751 28.7286L61.8868 26.7175H67.466L68.3777 28.7286C68.4606 28.9549 68.6831 29.0986 68.923 29.0855H70.5501C70.6156 29.0899 70.681 29.0768 70.7377 29.0463C70.8904 28.9593 70.9471 28.7678 70.8642 28.611L65.1148 16.0744ZM62.8159 24.6455L64.6524 20.5449H64.6873L66.5543 24.6455H62.8159Z" fill="#6B7280"/>
<path d="M84.627 16.057H82.9039C82.7076 16.057 82.5462 16.2181 82.5462 16.4139V24.1013L74.7815 15.8698H74.3191C74.1271 15.8698 73.9701 16.0135 73.9614 16.205V28.7416C73.9657 28.9375 74.1228 29.0942 74.3191 29.0942H76.0203C76.2166 29.0942 76.3737 28.9375 76.3737 28.7416V20.7321L84.1908 29.2944H84.627C84.8233 29.2944 84.9803 29.1377 84.9847 28.9419V16.4139C84.9847 16.2181 84.8233 16.057 84.627 16.057Z" fill="#6B7280"/>
<path d="M94.5467 16.057H90.119C89.9315 16.07 89.7875 16.2268 89.7875 16.4139V28.759C89.7875 28.9462 89.9315 29.1029 90.119 29.116H94.8477C98.4596 29.0333 101.326 26.0428 101.243 22.4341C101.16 18.8298 98.163 15.9699 94.5467 16.057ZM98.5207 22.8041C98.4727 25.072 96.5926 26.8698 94.3199 26.8219H92.1867V18.3118H94.5598C96.8281 18.3989 98.6036 20.3012 98.5207 22.5647V22.8041Z" fill="#6B7280"/>
<path d="M110.726 15.8873H110.687C107.01 15.896 104.035 18.8691 104.026 22.5343C104.017 26.2169 106.996 29.2118 110.687 29.2205C114.377 29.2292 117.379 26.2561 117.387 22.5735C117.396 18.8908 114.417 15.896 110.726 15.8873ZM110.726 26.8786C108.379 26.8568 106.482 24.9633 106.46 22.6213V22.5604C106.477 20.1924 108.414 18.2858 110.787 18.3032C113.16 18.3206 115.071 20.2533 115.053 22.6213C115.036 24.9894 113.099 26.896 110.726 26.8786Z" fill="#6B7280"/>
<path d="M131.019 20.0618C131.002 17.8374 129.183 16.044 126.954 16.057H121.623C121.427 16.057 121.27 16.2181 121.27 16.414V28.7416C121.265 28.9375 121.422 29.0942 121.619 29.0942H123.337C123.534 29.0942 123.691 28.9375 123.691 28.7416V23.9925H125.763L128.249 28.9245C128.306 29.0333 128.424 29.0986 128.546 29.0942H130.509C130.579 29.0942 130.648 29.0768 130.705 29.0376C130.866 28.9332 130.914 28.7199 130.814 28.5545L128.254 23.8228C129.881 23.1742 131.019 21.7769 131.019 20.0618ZM126.757 21.9989H123.704V18.2901H126.757C127.761 18.2988 128.581 19.0998 128.602 20.1009C128.602 21.1283 127.787 21.9684 126.757 21.9989Z" fill="#6B7280"/>
<path d="M25.2223 11.543L25.0609 11.6082L25.17 11.5473L25.1831 11.5386L25.1918 8.64821L25.17 8.66998V4.51287L18.8928 1L12.5937 4.50416V11.5342L10.0156 10.0847L10.0244 10.1152L6.29904 8.03444L0 11.5342L0.248646 11.6735L0 11.5473V18.573L6.29032 22.0772L5.57491 22.4777L3.71225 23.5093H3.72097L0 25.5901V32.6245L6.29032 36.1069L12.585 32.594L12.8249 32.4809L12.5981 32.6071V32.6158V35.4931V35.4888V39.6502L18.8971 43.1588H18.9015L25.1918 39.6546H25.1962V32.6289H25.1787L25.1962 32.6114V32.6289L31.4821 36.1374H31.4952L37.7812 32.6158V25.5988L31.4952 22.0903L37.7812 18.5817V11.5473L31.4952 8.03444L25.2267 11.543H25.2223ZM12.5937 25.5988V25.5857V18.5687L18.8753 15.0645H18.8797L25.1656 18.5643V25.6075L18.8884 29.1116V29.1203H18.8797H18.8753L18.8928 29.0986L18.8666 29.116L12.5894 25.6075L12.5937 25.5988Z" fill="#6B7280"/>
<path d="M134.042 16.3748H132.664C132.629 16.3748 132.603 16.4009 132.603 16.4357V16.6142C132.603 16.6142 132.603 16.6142 132.603 16.6185C132.603 16.649 132.633 16.6751 132.664 16.6708H133.187V18.5469C133.187 18.5469 133.187 18.5469 133.187 18.5513C133.187 18.5817 133.213 18.6078 133.244 18.6078H133.458C133.493 18.6078 133.519 18.5817 133.519 18.5469V16.6708H134.042C134.073 16.6708 134.099 16.6446 134.103 16.6142V16.4357C134.103 16.4009 134.077 16.3748 134.042 16.3748Z" fill="#6B7280"/>
<path d="M136.293 16.4009C136.289 16.3748 136.263 16.3574 136.236 16.3574H136.188C136.162 16.3574 136.14 16.3704 136.132 16.3922L135.464 18.0202L134.792 16.3922C134.792 16.3574 134.762 16.3574 134.74 16.3574H134.692C134.662 16.3574 134.635 16.3748 134.631 16.4009L134.238 18.5295C134.238 18.5295 134.238 18.5426 134.238 18.5513C134.238 18.5817 134.265 18.6079 134.3 18.6035H134.509C134.539 18.6035 134.561 18.5817 134.57 18.5556L134.797 17.1409L135.36 18.6079C135.368 18.6296 135.39 18.6427 135.416 18.6427H135.473C135.499 18.6427 135.521 18.6296 135.53 18.6079L136.106 17.1409L136.35 18.5556C136.359 18.5817 136.38 18.6035 136.411 18.6035H136.633C136.694 18.6035 136.694 18.573 136.694 18.5295L136.297 16.4009H136.293Z" fill="#6B7280"/>
</g>
<path d="M238.79 28.2078L237.343 32.6395H236.24L235.264 29.6386L234.262 32.6395H233.169L231.716 28.2078H232.78L233.778 31.3194L234.819 28.2078H235.766L236.781 31.3481L237.812 28.2078H238.788H238.79ZM244.023 31.6843H241.967L241.573 32.6334H240.526L242.5 28.2016H243.515L245.493 32.6334H244.417L244.023 31.6843ZM243.701 30.9074L242.998 29.2102L242.295 30.9074H243.703H243.701ZM247.852 28.2078H248.877V31.8011H251.095V32.6395H247.852V28.2078ZM253.567 28.2078H254.592V31.8011H256.81V32.6395H253.567V28.2078ZM262.713 31.8114V32.6313H259.282V28.1996H262.629V29.0195H260.301V29.9788H262.357V30.7783H260.301V31.8052H262.711V31.8114H262.713ZM266.344 29.038H264.925V28.1996H268.783V29.038H267.365V32.6313H266.34V29.038H266.346H266.344Z" fill="#6B7280"/>
<path d="M231.884 13.0636H227.167V10.491H241.34L239.749 13.0636H235.813V22.4559H231.884V13.0636Z" fill="#6B7280"/>
<path d="M248.889 10.4788H244.954V22.4601H248.889V10.4788Z" fill="#6B7280"/>
<path d="M254.5 13.0759L252.897 10.4747H260.118C264.835 10.7801 267.203 12.7766 267.213 16.4643C267.213 20.1704 265.063 22.1669 260.76 22.4539H253.051V15.2159H256.953V19.8527H260.112C262.074 19.8527 263.06 18.7109 263.072 16.4253C263.039 14.1787 261.846 13.0636 259.487 13.0698H254.498V13.0759H254.5Z" fill="#6B7280"/>
<path d="M275.607 10.4787V16.4479C275.607 17.2309 275.873 18.0016 276.4 18.7601C276.931 19.5206 277.708 19.8977 278.733 19.8977C279.676 19.8977 280.402 19.5595 280.912 18.8769C281.422 18.2005 281.677 17.3846 281.677 16.4479V10.4787H285.827V16.4479C285.827 18.2394 285.2 19.6825 283.948 20.7853C282.695 21.8902 280.926 22.4375 278.637 22.4375C276.347 22.4375 274.607 21.8656 273.344 20.7177C272.081 19.5698 271.448 18.1492 271.448 16.4458L271.431 10.4767H275.605L275.607 10.4787Z" fill="#6B7280"/>
<path d="M300.08 15.1504C302.851 15.4988 304.243 16.5975 304.266 18.4444V18.7765C304.243 20.9739 302.857 22.1997 300.115 22.4539H290.126L291.684 19.8629H299.139C299.949 19.7584 300.353 19.3689 300.353 18.6986C300.353 18.1165 299.92 17.7659 299.061 17.6553H294.312C291.546 17.3068 290.148 16.2081 290.128 14.3714V14.0393C290.151 11.9321 291.53 10.7453 294.279 10.4849H304.284L302.693 13.0595H295.189C294.412 13.1477 294.031 13.5146 294.041 14.1623C294.041 14.7445 294.474 15.0725 295.333 15.1442H300.082V15.1504H300.08Z" fill="#6B7280"/>
<path d="M220.571 16.493C219.966 16.8374 219.3 17.1715 218.535 17.5158C217.551 17.9607 216.504 18.3563 215.332 18.7253L215.311 18.7314C213.013 19.4263 210.728 19.8383 208.516 19.9511C208.176 19.9675 207.841 19.9757 207.513 19.9777C205.043 23.7371 200.804 26.0473 196.284 26.0473C192.73 26.0473 189.381 24.6739 186.853 22.1792C184.574 19.9306 183.196 16.9993 182.909 13.8384C181.394 13.8876 179.875 14.0598 178.387 14.355L178.361 14.3591C177.524 14.5128 176.639 14.7281 175.491 15.056C175.054 15.1811 174.595 15.3266 174.083 15.5029L174.048 15.5152C173.722 15.6197 172.668 15.9969 172.002 16.249V29.6652C172.002 30.9628 172.744 32.1496 173.921 32.7092L194.835 42.6899C195.756 43.1286 196.819 43.1286 197.74 42.6899L218.654 32.7092C219.825 32.1496 220.573 30.9628 220.573 29.6652V25.9509L213.948 28.6895C213.148 29.0175 212.279 28.4353 212.279 27.5744V23.3763C212.279 22.3883 212.888 21.5028 213.815 21.1523L220.573 18.5961V16.4868L220.571 16.493Z" fill="#6B7280"/>
<path d="M185.379 8.64416C186.136 8.64416 186.878 8.67696 187.583 8.74256C188.868 8.8676 190.01 9.05208 191.08 9.30626C193.302 9.82487 195.516 10.7002 197.652 11.9055C198.433 12.3339 199.289 12.7869 200.15 13.1272L200.187 13.1415L200.224 13.1579C200.528 13.2932 200.866 13.4121 201.225 13.5412L201.518 13.6458C201.626 13.6868 201.741 13.7196 201.874 13.7585C201.969 13.7872 202.065 13.8139 202.159 13.8446C202.233 13.8671 202.305 13.8897 202.379 13.9122C202.524 13.9573 202.647 13.9963 202.75 14.0188L202.797 14.0291L202.844 14.0414C203.799 14.3079 204.814 14.4739 205.593 14.5907C206.507 14.7096 207.458 14.7793 208.422 14.7957C208.477 14.7957 208.536 14.7957 208.596 14.7957C208.721 14.0865 208.788 13.3588 208.788 12.6147C208.79 5.64525 203.141 0 196.178 0C190.586 0 185.849 3.63846 184.194 8.67081C184.6 8.65441 184.998 8.64416 185.381 8.64416H185.379Z" fill="#6B7280"/>
<path d="M214.145 24.5673C214.073 25.254 214.571 25.8095 215.26 25.8095C215.948 25.8095 216.563 25.254 216.635 24.5673C216.707 23.8847 216.209 23.3251 215.52 23.3251C214.831 23.3251 214.216 23.8806 214.145 24.5673Z" fill="#6B7280"/>
<path d="M172 14.316C172.881 13.7277 173.831 13.2358 174.8 12.7971C175.77 12.3543 176.774 11.9874 177.799 11.6615C179.851 11.0342 181.985 10.6304 184.153 10.5197C185.234 10.4705 186.326 10.4808 187.413 10.5812C188.499 10.6858 189.581 10.8477 190.651 11.1019C192.785 11.6 194.837 12.4384 196.746 13.5145C197.633 14.0024 198.531 14.4739 199.474 14.8449C199.933 15.0499 200.417 15.2118 200.892 15.3819C201.13 15.4701 201.374 15.5316 201.618 15.6095C201.862 15.6812 202.1 15.7653 202.35 15.8206C203.326 16.0932 204.33 16.2695 205.339 16.4192C206.347 16.5524 207.368 16.6242 208.393 16.6405C210.445 16.6631 212.513 16.4807 214.553 16.0809C215.577 15.8924 216.588 15.6382 217.597 15.3492C218.101 15.2057 218.601 15.0499 219.099 14.8777C219.597 14.7117 220.091 14.5292 220.579 14.3242C219.698 14.9125 218.744 15.4004 217.773 15.837C216.803 16.2757 215.793 16.6467 214.774 16.9685C212.722 17.5896 210.588 17.9996 208.419 18.1103C207.339 18.1595 206.247 18.1492 205.16 18.0549C204.074 17.9545 202.991 17.7946 201.921 17.5384C199.788 17.0444 197.73 16.208 195.823 15.1319C194.936 14.644 194.038 14.1725 193.095 13.7954C192.636 13.5904 192.152 13.4285 191.676 13.2522C191.439 13.164 191.195 13.1025 190.951 13.0246C190.707 12.9529 190.469 12.8688 190.219 12.8135C189.243 12.5409 188.239 12.3646 187.236 12.2088C186.228 12.0756 185.207 12.0038 184.182 11.9813C182.13 11.9526 180.062 12.1412 178.029 12.547C177.004 12.7356 175.993 12.9959 174.985 13.285C174.48 13.4285 173.98 13.5904 173.482 13.7626C172.984 13.9225 172.49 14.111 172.002 14.316H172Z" fill="#6B7280"/>
<path d="M390.288 29.9713C390.493 29.9364 390.701 29.9007 390.903 29.9007C391.118 29.9007 391.334 29.9007 391.656 30.2234C392.302 31.0835 390.042 32.4811 389.398 32.6967C387.784 33.342 386.063 33.342 384.45 32.9115C381.869 32.2662 380.685 30.546 380.685 27.6423V12.803C379.932 12.803 379.395 12.803 379.395 11.8359C379.395 11.1914 379.61 10.8679 380.47 10.3305L387.139 6.35255C387.784 5.92207 388.752 5.70726 388.752 6.78303V10.8679H390.688C391.334 10.8679 391.549 11.2984 391.549 11.8359C391.549 12.3733 391.334 12.803 390.688 12.803H388.752V28.0727C388.752 28.1803 388.74 28.2879 388.728 28.3953C388.704 28.6104 388.68 28.8256 388.752 29.0406C388.999 30.1922 389.623 30.0852 390.288 29.9713Z" fill="#6B7280"/>
<path fill-rule="evenodd" clip-rule="evenodd" d="M407.789 11.2995C404.992 10.0089 402.088 10.0089 399.292 11.0838C394.882 12.8049 392.624 16.1383 392.301 20.7615C391.978 24.7404 393.269 28.1816 396.388 30.762C399.185 33.0204 402.519 33.558 405.96 32.9127C408.327 32.4821 410.37 31.1925 411.876 29.2566C411.876 29.2566 411.876 29.1495 411.984 29.1495C412.199 28.719 411.876 28.1816 411.338 28.0738H411.123C410.764 28.0738 410.405 28.1695 410.046 28.2652C409.868 28.3129 409.689 28.3606 409.51 28.3965C406.069 29.0418 402.949 27.8589 401.443 24.7404L401.395 24.652C400.776 23.5187 400.354 22.7459 399.83 20.439H411.338C412.414 20.439 412.629 20.2241 412.629 19.1492C412.629 15.6 411.123 12.8049 407.789 11.2995ZM405.638 17.2133C405.638 17.9665 405.208 18.396 404.455 18.396H399.83C399.83 16.4601 400.045 14.525 401.12 12.8049C402.196 10.9768 403.917 11.0838 404.885 12.9119C405.638 14.3104 405.745 15.7079 405.638 17.2133Z" fill="#6B7280"/>
<path fill-rule="evenodd" clip-rule="evenodd" d="M434.679 30.5469C434.572 30.0095 434.464 29.3642 434.464 28.8268C434.41 27.0059 434.383 25.185 434.357 23.3641C434.33 21.5289 434.303 19.6937 434.248 17.8585C434.141 14.417 432.42 12.0516 429.193 11.0836C425.859 10.1165 422.632 10.1165 419.298 11.2993C418.008 11.7289 416.825 12.4821 416.179 13.7717C415.534 14.9554 415.641 16.2452 416.394 17.2132C417.47 18.5037 418.976 18.5037 420.373 18.181C421.449 17.9654 422.095 16.9983 422.202 15.7078L422.242 15.4309C422.336 14.7707 422.43 14.11 422.525 13.4499C422.741 12.3742 423.386 11.7289 424.461 11.7289C425.429 11.7289 425.966 12.2672 426.182 13.4499C426.236 14.0972 426.263 14.7719 426.29 15.4466C426.317 16.116 426.344 16.7855 426.397 17.4278C426.564 19.178 423.372 19.9594 421.276 20.4727C420.667 20.6218 420.151 20.7482 419.836 20.8693C417.9 21.5146 416.179 22.4824 414.996 24.2027C412.952 27.1056 413.705 31.0844 416.609 32.5898C419.943 34.3101 424.891 33.6656 426.935 29.579C427.58 31.0844 428.548 32.1602 430.054 32.5898C430.724 32.781 431.479 32.8873 432.168 32.9844C432.253 32.9966 432.337 33.0084 432.42 33.0203C433.28 33.1282 436.292 33.45 435.324 31.9446C435.19 31.475 435.014 31.1728 434.874 30.9335L434.874 30.9333C434.79 30.7893 434.719 30.6681 434.679 30.5469ZM426.397 26.5682C426.397 27.7509 425.214 28.7189 424.031 28.611C422.848 28.5041 422.095 27.7509 421.988 26.4603C421.879 25.4932 422.202 24.5254 422.741 23.7722C423.708 22.4824 424.891 21.6215 426.397 20.7614C426.397 21.4067 426.409 22.052 426.421 22.6971C426.444 23.9875 426.468 25.2776 426.397 26.5682Z" fill="#6B7280"/>
<path d="M348.882 10.8354C350.499 10.4287 352.514 10.5427 354.367 12.0865C355.341 12.8974 356.33 12.9766 357.203 12.7756C357.686 12.6645 358.103 12.4734 358.419 12.2865C358.732 12.1017 358.959 11.9143 359.055 11.8025C359.606 11.1612 360.573 11.0871 361.215 11.6368C361.858 12.1865 361.932 13.1519 361.381 13.7931C360.743 14.5368 359.442 15.3992 357.892 15.7559C356.256 16.1324 354.24 15.9639 352.404 14.4349C351.449 13.6391 350.496 13.5835 349.631 13.8012C348.695 14.0368 347.928 14.5896 347.654 14.854C347.046 15.4411 346.076 15.4248 345.488 14.8176C344.9 14.2104 344.916 13.2422 345.524 12.6551C346.112 12.0881 347.338 11.224 348.882 10.8354Z" fill="#6B7280"/>
<path d="M344.398 10.4431C344.709 9.6641 344.321 8.77283 343.532 8.45237C342.743 8.13191 341.851 8.50362 341.54 9.28261C338.586 16.685 340.001 25.1758 344.768 30.2277C345.352 30.847 346.325 30.8864 346.94 30.3155C347.555 29.7445 347.58 28.7797 346.995 28.1603C343.169 24.1054 341.816 16.9153 344.398 10.4431Z" fill="#6B7280"/>
<path d="M363.34 8.45237C362.55 8.77283 362.162 9.6641 362.473 10.4431C365.056 16.9153 363.702 24.1054 359.876 28.1603C359.292 28.7797 359.317 29.7445 359.932 30.3155C360.547 30.8864 361.519 30.847 362.104 30.2277C366.871 25.1758 368.286 16.685 365.332 9.28261C365.021 8.50362 364.129 8.13191 363.34 8.45237Z" fill="#6B7280"/>
<path d="M350.546 29.377C349.7 29.377 349.014 30.0617 349.014 30.9063C349.014 31.7509 349.7 32.4355 350.546 32.4355H356.225C357.071 32.4355 357.757 31.7509 357.757 30.9063C357.757 30.0617 357.071 29.377 356.225 29.377H350.546Z" fill="#6B7280"/>
<path d="M369.421 14.7281V14.6664C369.421 13.8218 370.107 13.1371 370.953 13.1371C371.799 13.1371 372.485 13.8218 372.485 14.6664V14.7281C372.485 15.5728 371.799 16.2575 370.953 16.2575C370.107 16.2575 369.421 15.5728 369.421 14.7281Z" fill="#6B7280"/>
<path d="M371.115 19.7671C370.273 19.6786 369.519 20.2877 369.431 21.1277C369.289 22.4687 368.912 23.7638 368.56 24.7418C368.385 25.2259 368.22 25.6213 368.1 25.892C368.042 26.0244 367.982 26.1561 367.918 26.2858L367.917 26.2867C367.537 27.0408 367.841 27.9599 368.597 28.3397C369.349 28.7178 370.264 28.4193 370.648 27.6733C370.648 27.6733 370.823 27.3082 370.904 27.1259C371.047 26.8011 371.24 26.3395 371.442 25.7786C371.844 24.6664 372.301 23.1186 372.478 21.4484C372.566 20.6084 371.956 19.8557 371.115 19.7671Z" fill="#6B7280"/>
<g clip-path="url(#clip1_93_204109)">
<path d="M52.4968 79.9189H47.3915V96.5693H52.4968V79.9189Z" fill="#6B7280"/>
<path d="M40.4973 82.6831H40.3995V79.919H35.5549V96.5693H40.6273V88.9278C40.6273 85.4472 42.7091 83.919 45.8955 84.3419H45.9934V79.9518C45.7326 79.8539 45.4397 79.8218 44.9531 79.8218C42.9685 79.8218 41.6354 80.732 40.4973 82.6837V82.6831Z" fill="#6B7280"/>
<path d="M31.4563 81.4492C30.0582 80.1482 28.2036 79.4324 25.8631 79.4324C20.8557 79.4324 17.3751 83.2367 17.3751 88.2133C17.3751 93.1899 20.6928 97.0593 26.1882 97.0593C28.27 97.0593 29.9275 96.5056 31.2934 95.5633C32.7566 94.5559 33.7968 93.0921 34.0904 91.6289H29.213C28.7264 92.7328 27.717 93.3836 26.221 93.3836C23.9777 93.3836 22.6117 91.9205 22.3517 89.6771H34.3511C34.384 86.0987 33.4409 83.2374 31.457 81.4498L31.4563 81.4492ZM22.3859 86.3587C22.7746 84.3741 23.8477 83.0738 25.9623 83.0738C27.7512 83.0738 28.9872 84.4069 29.1822 86.3587H22.3859Z" fill="#6B7280"/>
<path d="M77.18 79.4632C71.8797 79.4632 68.3341 83.2675 68.3341 88.2763C68.3341 93.2851 71.8777 97.0894 77.18 97.0894C82.4824 97.0894 86.026 93.2522 86.026 88.2763C86.026 83.3004 82.4824 79.4632 77.18 79.4632ZM77.1479 93.3487C74.7417 93.3487 73.4736 91.3333 73.4736 88.2763C73.4736 85.2193 74.7417 83.2039 77.1479 83.2039C79.5541 83.2039 80.8872 85.1885 80.8872 88.2763C80.8892 91.3333 79.5554 93.3487 77.1479 93.3487Z" fill="#6B7280"/>
<path d="M97.2118 79.4304C94.9363 79.4304 93.3424 80.4056 92.1393 82.1945H92.0415V79.919H87.1319V96.5693H92.2043V87.3018C92.2043 85.1871 93.4396 83.6911 95.2614 83.6911C97.0831 83.6911 97.9276 84.9264 97.9276 86.6831V96.5693H103V85.7079C103 82.0323 100.79 79.431 97.2111 79.431L97.2118 79.4304Z" fill="#6B7280"/>
<path d="M52.4968 74H47.3915V78.5208H52.4968V74Z" fill="#6B7280"/>
<path d="M60.076 92.4714L67.7825 83.8211V79.9189H53.897V83.919H61.7006V84.0162L53.897 92.7321V96.5693H68.1404V92.5692H60.076V92.4714Z" fill="#6B7280"/>
<path d="M13.2292 79.9189L9.17582 90.4778L5.12239 79.9189H0L6.31316 96.3633C6.36107 96.4885 6.48083 96.5706 6.61496 96.5706H11.7374C11.8708 96.5706 11.9912 96.4885 12.0392 96.3633L18.3523 79.9189H13.2299H13.2292Z" fill="#6B7280"/>
</g>
<g clip-path="url(#clip2_93_204109)">
<path d="M210.938 82.4556H223.125C224.947 82.4556 226.339 82.8258 227.309 83.5737C228.279 84.3215 228.76 85.3877 228.76 86.7723C228.76 88.1569 228.279 89.2231 227.309 89.9635C226.339 90.704 224.947 91.0742 223.125 91.0742H215.284V94.8948H210.93V82.4556H210.938ZM222.303 88.2902C222.948 88.2902 223.444 88.1569 223.792 87.8903C224.14 87.6238 224.31 87.2536 224.31 86.7723C224.31 86.291 224.14 85.9208 223.792 85.6543C223.444 85.3877 222.948 85.2544 222.303 85.2544H215.292V88.2828H222.303V88.2902Z" fill="#6B7280"/>
<path d="M230.433 82.4556H234.787V87.4239H236.905L243.494 82.4556H248.988L240.71 88.7418L249.166 94.8874H243.25L237.104 90.4448H234.794V94.8874H230.441V82.4556H230.433Z" fill="#6B7280"/>
<path d="M267.536 94.8948H256.896C254.186 94.8948 252.091 94.3543 250.617 93.2732C249.144 92.1922 248.403 90.6595 248.403 88.6752C248.403 86.6909 249.136 85.1434 250.602 84.0698C252.068 82.9961 254.164 82.4556 256.889 82.4556H267.529V85.3951H257.325C255.919 85.3951 254.83 85.6913 254.06 86.2762C253.29 86.8612 252.905 87.683 252.905 88.727C252.905 89.771 253.29 90.5855 254.06 91.1778C254.83 91.7628 255.919 92.0589 257.325 92.0589H263.508V90.0302H257.325V87.5794H267.529V94.8874L267.536 94.8948Z" fill="#6B7280"/>
<path d="M291 94.8948H285.61L280.205 90.156H279.605L274.2 94.8948H268.809L275.784 88.6382L268.987 82.4556H274.392L279.605 87.0685H280.182L285.417 82.4556H290.822L284.025 88.6234L291 94.8948Z" fill="#6B7280"/>
<path d="M163.44 88.6752L167.349 82.974L161.648 74.585L152 88.6456L161.589 102.751L167.327 94.3839L163.44 88.6752Z" fill="#6B7280"/>
<path d="M178.285 79.9308L183.86 88.1051L187.74 82.389L193.442 74L182.002 74.0222L178.137 79.7087L178.285 79.9308Z" fill="#6B7280"/>
<path d="M177.189 97.4493L171.629 89.2676L167.719 94.9614L161.981 103.328L173.428 103.35L177.33 97.6566L177.189 97.4493Z" fill="#6B7280"/>
<path d="M203.489 88.6382L193.841 74.5775L188.14 82.9665L192.05 88.6604L188.162 94.3765L193.901 102.743L203.489 88.6382Z" fill="#6B7280"/>
<path d="M187.77 94.954L183.468 88.6826L177.745 80.2936L173.487 74.0296L162.048 74L167.749 82.3964L172.021 88.69L177.73 97.0791L182.061 103.343L193.508 103.321L187.77 94.954Z" fill="#6B7280"/>
</g>
<g clip-path="url(#clip3_93_204109)">
<path d="M349.75 80.1187L345.629 89.6461L341.509 80.1187H336L344.518 97.569H346.74L355.29 80.1187H349.75Z" fill="#6B7280"/>
<path d="M361.896 80.1284H356.946V97.5582H361.896V80.1284Z" fill="#6B7280"/>
<path d="M378.229 80.1093L373.093 91.4464L367.923 80.1093H363.626L372.049 97.5611H374.138L382.583 80.1093H378.229Z" fill="#6B7280"/>
<path d="M388.193 80.1284H384.529V97.5582H388.193V80.1284Z" fill="#6B7280"/>
<mask id="mask0_93_204109" style="mask-type:luminance" maskUnits="userSpaceOnUse" x="336" y="80" width="100" height="18">
<path d="M436 80H336V97.5831H436V80Z" fill="white"/>
</mask>
<g mask="url(#mask0_93_204109)">
<path d="M431.419 90.1663C432.219 89.6517 432.806 89.005 433.182 88.2257C433.559 87.4462 433.747 86.6166 433.747 85.7415C433.747 84.8049 433.52 83.9203 433.066 83.0899C432.728 82.4833 432.285 81.9528 431.737 81.4993C431.186 81.0459 430.5 80.7088 429.679 80.4863C428.858 80.2617 427.742 80.1517 426.337 80.1517H421.898V97.5729H423.651V81.7425H426.693C427.6 81.7425 428.365 81.8242 428.987 81.99C429.61 82.1558 430.087 82.3566 430.416 82.5961C430.877 82.9172 431.257 83.3611 431.558 83.9266C431.858 84.4907 432.007 85.1002 432.007 85.7522C432.007 86.2832 431.895 86.8035 431.673 87.3134C431.45 87.8261 431.144 88.2531 430.757 88.5946C430.369 88.9358 429.968 89.186 429.558 89.3435C429.147 89.4998 428.615 89.6067 427.962 89.6602C427.57 89.6918 426.705 89.7109 425.368 89.717L431.252 97.5829H433.454L428.561 91.1119C429.667 90.9969 430.621 90.6826 431.419 90.1663Z" fill="#6B7280"/>
</g>
<mask id="mask1_93_204109" style="mask-type:luminance" maskUnits="userSpaceOnUse" x="336" y="80" width="100" height="18">
<path d="M436 80H336V97.5831H436V80Z" fill="white"/>
</mask>
<g mask="url(#mask1_93_204109)">
<path d="M420.065 97.568L411.631 80.1387H409.49L401.065 97.578H403.481L410.607 82.9722L417.665 97.5714L420.065 97.568Z" fill="#6B7280"/>
</g>
<mask id="mask2_93_204109" style="mask-type:luminance" maskUnits="userSpaceOnUse" x="336" y="80" width="100" height="18">
<path d="M436 80H336V97.5831H436V80Z" fill="white"/>
</mask>
<g mask="url(#mask2_93_204109)">
<path d="M416.851 91.3853H408.265L407.096 93.5411H416.647L416.851 91.3853Z" fill="#6B7280"/>
</g>
<mask id="mask3_93_204109" style="mask-type:luminance" maskUnits="userSpaceOnUse" x="336" y="80" width="100" height="18">
<path d="M436 80H336V97.5831H436V80Z" fill="white"/>
</mask>
<g mask="url(#mask3_93_204109)">
<path d="M434.927 80C435.112 80 435.289 80.0462 435.458 80.1389C435.627 80.2316 435.759 80.3637 435.855 80.5352C435.952 80.7069 436 80.8871 436 81.0759C436 81.263 435.953 81.4416 435.857 81.6111C435.762 81.7811 435.629 81.9137 435.459 82.0088C435.29 82.1042 435.111 82.1519 434.924 82.1519C434.737 82.1519 434.559 82.1042 434.389 82.0088C434.219 81.9137 434.087 81.7811 433.992 81.6111C433.896 81.4416 433.848 81.263 433.848 81.0759C433.848 80.8888 433.897 80.7091 433.994 80.5366C434.091 80.3642 434.224 80.2316 434.393 80.1389C434.562 80.0462 434.74 80 434.927 80ZM434.924 80.2421C434.695 80.2421 434.5 80.3229 434.341 80.4843C434.181 80.6457 434.101 80.8431 434.101 81.0759C434.101 81.309 434.181 81.5062 434.342 81.6676C434.502 81.829 434.696 81.9097 434.924 81.9097C435.152 81.9097 435.345 81.829 435.506 81.6676C435.666 81.5062 435.747 81.309 435.747 81.0759C435.747 80.8448 435.667 80.6482 435.507 80.4858C435.348 80.3233 435.153 80.2421 434.924 80.2421ZM434.465 80.4706H434.985C435.085 80.4706 435.16 80.4787 435.208 80.4953C435.276 80.5173 435.327 80.5545 435.363 80.6068C435.399 80.6592 435.417 80.7247 435.417 80.8035C435.417 80.8825 435.401 80.9448 435.367 80.9906C435.334 81.0366 435.275 81.0742 435.189 81.1036V81.109C435.271 81.1349 435.328 81.175 435.359 81.23C435.377 81.2667 435.39 81.3494 435.398 81.4778C435.403 81.5658 435.407 81.6189 435.412 81.6373C435.415 81.6556 435.423 81.6769 435.434 81.7006H435.183C435.172 81.6823 435.165 81.6639 435.161 81.6456C435.156 81.6199 435.151 81.5712 435.147 81.4998C435.143 81.3897 435.13 81.3173 435.106 81.2824C435.073 81.2327 435.013 81.208 434.927 81.208H434.71V81.7006H434.465L434.465 80.4706ZM434.71 80.6714V81.0099H434.93C435.019 81.0099 435.081 80.9947 435.115 80.9644C435.149 80.9343 435.166 80.8905 435.166 80.8338C435.166 80.7807 435.152 80.7401 435.122 80.7127C435.093 80.6853 435.038 80.6714 434.957 80.6714H434.71Z" fill="#6B7280"/>
</g>
<mask id="mask4_93_204109" style="mask-type:luminance" maskUnits="userSpaceOnUse" x="336" y="80" width="100" height="18">
<path d="M436 80H336V97.5831H436V80Z" fill="white"/>
</mask>
<g mask="url(#mask4_93_204109)">
<path d="M395.518 82.8086V97.5626H398.412V82.8086H402.802V80.1108H391.082V82.8086H395.518Z" fill="#6B7280"/>
</g>
</g>
<defs>
<clipPath id="clip0_93_204109">
<rect width="136.69" height="42.1631" fill="white" transform="translate(0 1)"/>
</clipPath>
<clipPath id="clip1_93_204109">
<rect width="103" height="23.0901" fill="white" transform="translate(0 74)"/>
</clipPath>
<clipPath id="clip2_93_204109">
<rect width="139" height="29.3505" fill="white" transform="translate(152 74)"/>
</clipPath>
<clipPath id="clip3_93_204109">
<rect width="100" height="17.5831" fill="white" transform="translate(336 80)"/>
</clipPath>
</defs>
</svg>
