<svg width="150" height="32" viewBox="0 0 150 32" fill="none" xmlns="http://www.w3.org/2000/svg">
<g id="Layer_2" clip-path="url(#clip0_36_144576)">
<g id="Layer_1-2">
<path id="Vector" d="M63.5304 9.32022H76.6382C78.5972 9.32022 80.0943 9.71839 81.1375 10.5227C82.1807 11.327 82.6983 12.4737 82.6983 13.9629C82.6983 15.452 82.1807 16.5988 81.1375 17.3951C80.0943 18.1914 78.5972 18.5896 76.6382 18.5896H68.2049V22.6987H63.5225V9.32022H63.5304ZM75.7542 15.5954C76.4471 15.5954 76.9806 15.452 77.3549 15.1654C77.7292 14.8787 77.9123 14.4805 77.9123 13.9629C77.9123 13.4453 77.7292 13.0471 77.3549 12.7604C76.9806 12.4737 76.4471 12.3304 75.7542 12.3304H68.2129V15.5874H75.7542V15.5954Z" fill="#6B7280"/>
<path id="Vector_2" d="M84.498 9.32022H89.1805V14.6637H91.4581L98.5455 9.32022H104.454L95.5512 16.0811L104.645 22.6908H98.2827L91.6731 17.9127H89.1885V22.6908H84.506V9.32022H84.498Z" fill="#6B7280"/>
<path id="Vector_3" d="M124.403 22.6987H112.959C110.045 22.6987 107.791 22.1174 106.206 20.9547C104.622 19.7921 103.825 18.1437 103.825 16.0095C103.825 13.8753 104.614 12.2109 106.19 11.0562C107.767 9.90155 110.021 9.32022 112.951 9.32022H124.395V12.4817H113.421C111.908 12.4817 110.737 12.8002 109.909 13.4293C109.081 14.0584 108.667 14.9424 108.667 16.0652C108.667 17.1881 109.081 18.064 109.909 18.7011C110.737 19.3302 111.908 19.6487 113.421 19.6487H120.071V17.4668H113.421V14.8309H124.395V22.6908L124.403 22.6987Z" fill="#6B7280"/>
<path id="Vector_4" d="M149.639 22.6987H143.841L138.028 17.6022H137.383L131.57 22.6987H125.772L133.274 15.9697L125.964 9.32022H131.777L137.383 14.2814H138.004L143.634 9.32022H149.448L142.137 15.9537L149.639 22.6987Z" fill="#6B7280"/>
<path id="Vector_5" d="M12.4453 16.0095L16.65 9.87766L10.5182 0.855133L0.141846 15.9776L10.4544 31.1479L16.6261 22.1493L12.4453 16.0095Z" fill="#6B7280"/>
<path id="Vector_6" d="M28.412 6.60469L34.4084 15.3963L38.5812 9.24854L44.713 0.226013L32.4096 0.249903L28.2527 6.36579L28.412 6.60469Z" fill="#6B7280"/>
<path id="Vector_7" d="M27.2333 25.4461L21.2528 16.6465L17.0481 22.7704L10.8765 31.769L23.1879 31.7929L27.3846 25.6691L27.2333 25.4461Z" fill="#6B7280"/>
<path id="Vector_8" d="M55.5194 15.9697L45.143 0.847168L39.0112 9.8697L43.2159 15.9935L39.0351 22.1413L45.2068 31.1399L55.5194 15.9697Z" fill="#6B7280"/>
<path id="Vector_9" d="M38.6131 22.7624L33.9863 16.0174L27.8306 6.9949L23.2517 0.257867L10.9482 0.226013L17.0801 9.25651L21.6749 16.0254L27.8147 25.0479L32.4733 31.785L44.7847 31.7611L38.6131 22.7624Z" fill="#6B7280"/>
</g>
</g>
<defs>
<clipPath id="clip0_36_144576">
<rect width="149.497" height="31.5669" fill="white" transform="translate(0.141846 0.226013)"/>
</clipPath>
</defs>
</svg>
