<svg width="97" height="28" viewBox="0 0 97 28" fill="none" xmlns="http://www.w3.org/2000/svg">
<g id="Group 1">
<path id="Vector" d="M51.1702 24.2397C51.3746 24.2048 51.5828 24.1691 51.7852 24.1691C52.0005 24.1691 52.2157 24.1691 52.5381 24.4918C53.1837 25.3519 50.9245 26.7495 50.2796 26.9651C48.6659 27.6104 46.945 27.6104 45.3322 27.1799C42.7506 26.5346 41.5673 24.8144 41.5673 21.9107V7.07137C40.8144 7.07137 40.2769 7.07137 40.2769 6.10427C40.2769 5.45983 40.492 5.13634 41.352 4.59887L48.0211 0.62095C48.6659 0.190472 49.6339 -0.0243361 49.6339 1.05143V5.13634H51.5701C52.2157 5.13634 52.431 5.5668 52.431 6.10427C52.431 6.64174 52.2157 7.07137 51.5701 7.07137H49.6339V22.3411C49.6339 22.4487 49.622 22.5563 49.6102 22.6637C49.5863 22.8788 49.5625 23.094 49.6339 23.309C49.8812 24.4606 50.5053 24.3536 51.1702 24.2397Z" fill="#6B7280"/>
<path id="Vector_2" fill-rule="evenodd" clip-rule="evenodd" d="M68.6715 5.56791C65.8746 4.27732 62.9704 4.27732 60.1744 5.35226C55.7645 7.07332 53.5061 10.4068 53.1829 15.03C52.8605 19.0088 54.1509 22.4501 57.2702 25.0304C60.0671 27.2889 63.4008 27.8264 66.8426 27.1811C69.209 26.7505 71.2523 25.4609 72.758 23.525C72.758 23.525 72.758 23.4179 72.8661 23.4179C73.0812 22.9875 72.758 22.4501 72.2203 22.3422H72.0052C71.6463 22.3422 71.2874 22.4379 70.9285 22.5336C70.7498 22.5813 70.571 22.6291 70.3923 22.6649C66.9506 23.3102 63.8313 22.1273 62.3256 19.0088L62.2774 18.9205C61.6583 17.7872 61.2361 17.0143 60.712 14.7074H72.2203C73.2965 14.7074 73.5109 14.4926 73.5109 13.4176C73.5109 9.86844 72.0052 7.07332 68.6715 5.56791ZM66.5201 11.4817C66.5201 12.2349 66.0897 12.6644 65.337 12.6644H60.712C60.712 10.7286 60.9271 8.79348 62.0024 7.07332C63.0784 5.24527 64.7993 5.35226 65.7673 7.18031C66.5201 8.5788 66.6274 9.97633 66.5201 11.4817Z" fill="#6B7280"/>
<path id="Vector_3" fill-rule="evenodd" clip-rule="evenodd" d="M95.5609 24.8153C95.4537 24.2779 95.3456 23.6326 95.3456 23.0952C95.2922 21.2743 95.2655 19.4534 95.2387 17.6325C95.2117 15.7973 95.1847 13.9621 95.1305 12.1269C95.0232 8.68543 93.3024 6.31998 90.075 5.35204C86.7413 4.38494 83.514 4.38494 80.1803 5.56771C78.8898 5.99734 77.7067 6.75046 77.0609 8.04014C76.4163 9.22376 76.5234 10.5136 77.2762 11.4816C78.3523 12.7721 79.858 12.7721 81.2555 12.4494C82.3316 12.2338 82.9773 11.2667 83.0844 9.97616L83.1238 9.6993C83.2179 9.03908 83.312 8.37841 83.4068 7.71834C83.6229 6.64263 84.2677 5.99734 85.3429 5.99734C86.311 5.99734 86.8486 6.53564 87.0637 7.71834C87.118 8.36563 87.145 9.04031 87.1721 9.71499C87.1988 10.3844 87.2256 11.0539 87.279 11.6963C87.4457 13.4464 84.2542 14.2278 82.1581 14.7411C81.5492 14.8902 81.0327 15.0166 80.718 15.1377C78.7818 15.783 77.0609 16.7508 75.8786 18.4711C73.8345 21.374 74.5874 25.3528 77.4914 26.8582C80.8251 28.5785 85.7733 27.934 87.8166 23.8474C88.4622 25.3528 89.4303 26.4286 90.9359 26.8582C91.6064 27.0494 92.3613 27.1557 93.0498 27.2528C93.1351 27.265 93.2194 27.2768 93.3024 27.2887C94.1625 27.3966 97.1738 27.7184 96.2065 26.213C96.0722 25.7434 95.8958 25.4412 95.7561 25.2019L95.7559 25.2017C95.6719 25.0577 95.6011 24.9365 95.5609 24.8153ZM87.279 20.8366C87.279 22.0193 86.0957 22.9873 84.9133 22.8794C83.73 22.7725 82.9773 22.0193 82.8701 20.7287C82.7612 19.7616 83.0844 18.7938 83.6229 18.0406C84.5902 16.7508 85.7733 15.8899 87.279 15.0298C87.279 15.6751 87.2909 16.3204 87.3029 16.9655C87.3266 18.2559 87.3504 19.546 87.279 20.8366Z" fill="#6B7280"/>
<path id="Vector_4" d="M9.76453 5.10384C11.3811 4.6971 13.396 4.81109 15.2495 6.35492C16.2232 7.1658 17.2119 7.24504 18.0854 7.04402C18.5679 6.93297 18.9848 6.74186 19.3015 6.55492C19.6145 6.37015 19.841 6.18271 19.9371 6.07092C20.4877 5.42968 21.4549 5.35549 22.0973 5.9052C22.7398 6.4549 22.8142 7.42036 22.2634 8.06158C21.6248 8.80521 20.3243 9.66764 18.7738 10.0244C17.1385 10.4008 15.1223 10.2323 13.2864 8.70333C12.3309 7.90753 11.3784 7.85197 10.5135 8.06958C9.5774 8.3052 8.81023 8.85799 8.53629 9.12239C7.92809 9.7095 6.95808 9.69319 6.36989 9.08607C5.7817 8.47879 5.79802 7.51065 6.40637 6.92355C6.99394 6.35652 8.22019 5.49242 9.76453 5.10384Z" fill="#6B7280"/>
<path id="Vector_5" d="M5.28056 4.71152C5.59143 3.93253 5.20346 3.04126 4.41408 2.7208C3.62465 2.40034 2.73269 2.77205 2.42182 3.55104C-0.532236 10.9535 0.883023 19.4442 5.65006 24.4962C6.23441 25.1154 7.20688 25.1548 7.82185 24.5839C8.43697 24.0129 8.46175 23.0482 7.8774 22.4287C4.05119 18.3739 2.69784 11.1837 5.28056 4.71152Z" fill="#6B7280"/>
<path id="Vector_6" d="M24.2217 2.7208C23.4322 3.04126 23.0442 3.93253 23.3551 4.71152C25.9379 11.1837 24.5846 18.3739 20.7584 22.4287C20.1739 23.0482 20.1989 24.0129 20.8138 24.5839C21.4289 25.1548 22.4013 25.1154 22.9858 24.4962C27.7527 19.4442 29.1681 10.9535 26.2139 3.55104C25.903 2.77205 25.0112 2.40034 24.2217 2.7208Z" fill="#6B7280"/>
<path id="Vector_7" d="M11.4284 23.6454C10.5822 23.6454 9.89624 24.3301 9.89624 25.1747C9.89624 26.0193 10.5822 26.704 11.4284 26.704H17.107C17.9532 26.704 18.6391 26.0193 18.6391 25.1747C18.6391 24.3301 17.9532 23.6454 17.107 23.6454H11.4284Z" fill="#6B7280"/>
<path id="Vector_8" d="M30.3027 8.99646V8.93475C30.3027 8.09017 30.9887 7.40549 31.8348 7.40549C32.6809 7.40549 33.367 8.09017 33.367 8.93475V8.99646C33.367 9.8412 32.6809 10.5259 31.8348 10.5259C30.9887 10.5259 30.3027 9.8412 30.3027 8.99646Z" fill="#6B7280"/>
<path id="Vector_9" d="M31.9969 14.0355C31.1554 13.947 30.4013 14.5561 30.3127 15.3961C30.171 16.7371 29.7945 18.0322 29.4416 19.0102C29.2668 19.4943 29.1018 19.8897 28.9823 20.1604C28.9238 20.2928 28.8638 20.4245 28.7999 20.5542L28.7994 20.5551C28.4195 21.3092 28.7234 22.2283 29.4789 22.6081C30.2307 22.9862 31.1465 22.6877 31.5306 21.9417C31.5306 21.9417 31.7056 21.5766 31.7859 21.3943C31.9295 21.0695 32.1219 20.6079 32.3243 20.047C32.7258 18.9348 33.1835 17.387 33.36 15.7168C33.4486 14.8768 32.8384 14.1241 31.9969 14.0355Z" fill="#6B7280"/>
</g>
</svg>
