<svg width="133" height="44" viewBox="0 0 133 44" fill="none" xmlns="http://www.w3.org/2000/svg">
<g id="Group 4">
<path id="Vector" d="M67.3877 28.2078L65.9405 32.6395H64.8377L63.862 29.6386L62.8596 32.6395H61.7671L60.3137 28.2078H61.3776L62.3759 31.3194L63.4172 28.2078H64.3642L65.3789 31.3481L66.4099 28.2078H67.3857H67.3877ZM72.6209 31.6843H70.565L70.1714 32.6334H69.1239L71.0979 28.2016H72.1126L74.0907 32.6334H73.0145L72.6209 31.6843ZM72.2991 30.9074L71.596 29.2102L70.8929 30.9074H72.3012H72.2991ZM76.45 28.2078H77.475V31.8011H79.6929V32.6395H76.45V28.2078ZM82.165 28.2078H83.1899V31.8011H85.4078V32.6395H82.165V28.2078ZM91.3114 31.8114V32.6313H87.8799V28.1996H91.2273V29.0195H88.8987V29.9788H90.9547V30.7783H88.8987V31.8052H91.3093V31.8114H91.3114ZM94.9416 29.038H93.5231V28.1996H97.3809V29.038H95.9624V32.6313H94.9375V29.038H94.9437H94.9416Z" fill="#6B7280"/>
<path id="Vector_2" d="M60.4818 13.0636H55.7651V10.4911H69.9377L68.347 13.0636H64.4113V22.456H60.4818V13.0636Z" fill="#6B7280"/>
<path id="Vector_3" d="M77.4872 10.4788H73.5515V22.4601H77.4872V10.4788Z" fill="#6B7280"/>
<path id="Vector_4" d="M83.0977 13.0759L81.4948 10.4746H88.7163C93.433 10.7801 95.8006 12.7766 95.8108 16.4643C95.8108 20.1704 93.6605 22.1669 89.3579 22.4539H81.6485V15.2159H85.5514V19.8526H88.7102C90.6719 19.8526 91.6578 18.7109 91.6701 16.4253C91.6373 14.1787 90.4443 13.0636 88.085 13.0697H83.0957V13.0759H83.0977Z" fill="#6B7280"/>
<path id="Vector_5" d="M104.205 10.4788V16.4479C104.205 17.2309 104.471 18.0017 104.998 18.7601C105.529 19.5206 106.306 19.8978 107.331 19.8978C108.274 19.8978 108.999 19.5595 109.51 18.8769C110.02 18.2005 110.274 17.3847 110.274 16.4479V10.4788H114.425V16.4479C114.425 18.2394 113.798 19.6825 112.546 20.7853C111.293 21.8902 109.524 22.4375 107.234 22.4375C104.945 22.4375 103.204 21.8656 101.942 20.7177C100.679 19.5698 100.046 18.1493 100.046 16.4458L100.029 10.4767H104.203L104.205 10.4788Z" fill="#6B7280"/>
<path id="Vector_6" d="M128.678 15.1504C131.449 15.4988 132.841 16.5975 132.864 18.4444V18.7765C132.841 20.9739 131.455 22.1997 128.713 22.4539H118.724L120.282 19.8629H127.737C128.547 19.7584 128.951 19.3689 128.951 18.6986C128.951 18.1165 128.518 17.7659 127.659 17.6553H122.91C120.144 17.3068 118.746 16.2081 118.726 14.3714V14.0393C118.748 11.9321 120.128 10.7453 122.877 10.4849H132.882L131.291 13.0595H123.787C123.01 13.1477 122.629 13.5146 122.639 14.1623C122.639 14.7445 123.072 15.0725 123.93 15.1442H128.68V15.1504H128.678Z" fill="#6B7280"/>
<path id="Vector_7" d="M49.1688 16.493C48.5641 16.8374 47.8979 17.1715 47.1333 17.5159C46.1494 17.9607 45.1019 18.3563 43.9294 18.7253L43.9089 18.7314C41.6111 19.4263 39.3255 19.8383 37.1137 19.9511C36.7735 19.9675 36.4393 19.9757 36.1114 19.9777C33.6413 23.7371 29.4022 26.0473 24.8823 26.0473C21.3279 26.0473 17.9785 24.6739 15.451 22.1793C13.1716 19.9306 11.7941 16.9993 11.5072 13.8385C9.99233 13.8877 8.4734 14.0599 6.98522 14.355L6.95857 14.3591C6.12224 14.5129 5.23671 14.7281 4.0888 15.0561C3.65218 15.1811 3.19302 15.3267 2.68056 15.5029L2.64571 15.5152C2.31979 15.6198 1.26617 15.9969 0.599976 16.2491V29.6653C0.599976 30.9628 1.34202 32.1497 2.51862 32.7093L23.4331 42.6899C24.3535 43.1286 25.4174 43.1286 26.3377 42.6899L47.2522 32.7093C48.4227 32.1497 49.1709 30.9628 49.1709 29.6653V25.951L42.5458 28.6895C41.7464 29.0175 40.8772 28.4354 40.8772 27.5744V23.3764C40.8772 22.3883 41.486 21.5028 42.4126 21.1523L49.1709 18.5961V16.4869L49.1688 16.493Z" fill="#6B7280"/>
<path id="Vector_8" d="M13.9772 8.64416C14.7336 8.64416 15.4756 8.67696 16.1807 8.74256C17.466 8.8676 18.6077 9.05208 19.6778 9.30626C21.8998 9.82487 24.1136 10.7002 26.2495 11.9055C27.0305 12.3339 27.8874 12.7869 28.7483 13.1272L28.7852 13.1415L28.8221 13.1579C29.1255 13.2932 29.4637 13.4121 29.8224 13.5412L30.1155 13.6458C30.2242 13.6868 30.339 13.7196 30.4722 13.7585C30.5665 13.7872 30.6628 13.8139 30.7571 13.8446C30.8309 13.8671 30.9027 13.8897 30.9765 13.9122C31.122 13.9573 31.245 13.9963 31.3475 14.0188L31.3946 14.0291L31.4418 14.0414C32.397 14.3079 33.4117 14.4739 34.1906 14.5907C35.1048 14.7096 36.056 14.7793 37.0194 14.7957C37.0747 14.7957 37.1342 14.7957 37.1936 14.7957C37.3187 14.0865 37.3863 13.3588 37.3863 12.6147C37.3884 5.64525 31.739 0 24.7757 0C19.1837 0 14.4466 3.63846 12.7924 8.67081C13.1982 8.65441 13.5959 8.64416 13.9792 8.64416H13.9772Z" fill="#6B7280"/>
<path id="Vector_9" d="M42.7425 24.5673C42.6707 25.254 43.1688 25.8095 43.8576 25.8095C44.5463 25.8095 45.1613 25.254 45.233 24.5673C45.3048 23.8847 44.8067 23.3251 44.1179 23.3251C43.4292 23.3251 42.8142 23.8806 42.7425 24.5673Z" fill="#6B7280"/>
<path id="Vector_10" d="M0.5979 14.3161C1.47933 13.7278 2.42841 13.2358 3.39798 12.7971C4.36755 12.3544 5.37197 11.9874 6.39689 11.6615C8.44878 11.0343 10.5827 10.6305 12.7514 10.5198C13.8316 10.4706 14.9242 10.4808 16.0106 10.5813C17.097 10.6858 18.1794 10.8477 19.2494 11.1019C21.3832 11.6 23.4351 12.4384 25.3435 13.5146C26.2311 14.0024 27.1289 14.4739 28.0719 14.8449C28.531 15.0499 29.0148 15.2118 29.4904 15.382C29.7281 15.4701 29.9721 15.5316 30.216 15.6095C30.4599 15.6813 30.6977 15.7653 30.9478 15.8206C31.9235 16.0933 32.9279 16.2696 33.9365 16.4192C34.945 16.5524 35.9658 16.6242 36.9907 16.6406C39.0426 16.6631 41.1109 16.4807 43.1505 16.081C44.1754 15.8924 45.186 15.6382 46.1945 15.3492C46.6987 15.2057 47.1989 15.0499 47.697 14.8777C48.1951 14.7117 48.6891 14.5292 49.177 14.3243C48.2956 14.9126 47.3424 15.4004 46.3708 15.837C45.4012 16.2757 44.3906 16.6467 43.3719 16.9686C41.32 17.5897 39.1861 17.9996 37.0174 18.1103C35.9371 18.1595 34.8445 18.1493 33.7581 18.055C32.6717 17.9545 31.5894 17.7946 30.5194 17.5384C28.3855 17.0444 26.3275 16.2081 24.4211 15.1319C23.5335 14.644 22.6357 14.1726 21.6928 13.7954C21.2336 13.5904 20.7499 13.4285 20.2743 13.2522C20.0365 13.1641 19.7926 13.1026 19.5486 13.0247C19.3047 12.9529 19.0669 12.8689 18.8169 12.8135C17.8411 12.5409 16.8367 12.3646 15.8343 12.2088C14.8258 12.0756 13.805 12.0038 12.7801 11.9813C10.7282 11.9526 8.65991 12.1412 6.62647 12.5471C5.60155 12.7356 4.59098 12.996 3.58246 13.285C3.0782 13.4285 2.57804 13.5904 2.07993 13.7626C1.58182 13.9225 1.08781 14.1111 0.59995 14.3161H0.5979Z" fill="#6B7280"/>
</g>
</svg>
