<?xml version="1.0" encoding="utf-8"?>
<!-- Generator: Adobe Illustrator 28.3.0, SVG Export Plug-In . SVG Version: 6.00 Build 0)  -->
<svg version="1.1" id="Layer_2_00000083078127684954965590000000162931953956594849_"
	 xmlns="http://www.w3.org/2000/svg" xmlns:xlink="http://www.w3.org/1999/xlink" x="0px" y="0px" viewBox="0 0 271.5 166"
	 style="enable-background:new 0 0 271.5 166;" xml:space="preserve">
<style type="text/css">
	.st0{fill:#22333B;}
</style>
<g id="Layer_2-2">
	<path class="st0" d="M270.3,68.7c-4-17.5-16.9-31.2-36.3-38.3c-8.2-3-17.9-4.6-28.7-4.6c-0.6,0-1.2,0-1.8,0l9.4-2.6
		c5.7-1.6,9.3-7,8.5-12.9C220.6,4.3,215.7,0,209.8,0h-0.1C194,0.2,145.4,3.5,32.1,29.8c-11.8,2.7-21.8,9.6-28,19.5
		c-4.4,6.9-5.2,12.9-2.4,18c2.8,5.1,8.4,7.7,16.7,7.7c9.7,0,21.8-3.5,22.8-3.8L56.2,67c-9.5,17.4-17,39.9-12,63.1
		c5,23.2,22.8,36,50.2,36c21.2,0,42.1-7.7,47.2-10.9c2.9-1.8,7.8-4.9,12.3-9.5c2.3,6.4,6.4,11.6,12.2,15.4c3.5,2.3,7.7,3.4,12.5,3.4
		c11.5,0,27.1-7,46.3-20.9c14.2-10.3,27.1-22,32.4-27.5C269,104,274.1,85.3,270.3,68.7L270.3,68.7z M250.7,109.8
		c-14.3,14.8-62.3,55-79.7,43.6c-17.4-11.4-7.1-36.7-7.1-36.7s8.1-37,18.1-38.7c5.4-0.9,9.1,1.3,11.7,4.4c4.2,5.1,4.8,12.2,1.9,18.2
		c-4.3,8.9-11.4,24.3-10.1,26.4c1.8,3,17.9-5.4,17.9-5.4c7-3.6,31.2-22.5,35.1-34.2c3.9-11.6-2.7-29.9-37-28.6
		c-34.1,1.3-67.7,12.1-72.9,22.6c-5.1,10.4,9.8,13.8,9.8,13.8s17.6,5.1,18,21.9c0.3,16.8-11.3,25.1-19.5,30.3
		c-8.2,5.1-73.9,26.7-83.8-19.3C46.5,98,64,68.5,76.8,51.8L38.6,62.5c0,0-40,11.9-27-8.4c5.1-8,13.3-13.4,22.5-15.5
		C66.9,30.9,162.9,9.6,209.8,9c3.2,0,3.9,4.5,0.8,5.4L102.8,44.6c-3.6,3.6-6.4,9.7-12.3,21.8c-9.6,19.4-20,56-5.6,62.4
		c13.3,5.9,31.8,4.5,42.5-3.2c8.5-6.2-1.4-10.3-1.4-10.3s-18.5-6.5-21.1-25.9c-1.2-9,2.8-16.8,7.4-22.7c4.9-6.2,11.1-10.5,18.6-14
		c18.4-8.4,67.9-25.8,100-13.9C269.5,53,268.5,91.5,250.7,109.8L250.7,109.8z"/>
</g>
</svg>
