<svg width="590" height="361" viewBox="0 0 590 361" fill="none" xmlns="http://www.w3.org/2000/svg">
<path d="M587.289 149.279C578.597 111.122 550.566 81.5098 508.324 65.8992C490.44 59.2898 469.493 55.9415 446.003 55.9415C444.721 55.9415 443.461 55.9415 442.179 55.9633L462.692 50.2234C475.143 46.7448 482.9 34.8955 481.14 22.0896C479.38 9.28373 468.754 0 455.76 0H455.521C421.514 0.434835 315.844 7.63135 69.6915 64.7034C44.0724 70.6389 22.4298 85.6625 8.78366 107.035C-0.77733 121.971 -2.53742 135.168 3.52511 146.257C9.63111 157.41 21.8431 163.085 39.8134 163.085C60.8911 163.085 87.0969 155.475 89.2481 154.823L122.038 145.626C101.482 183.5 85.1412 232.398 95.9842 282.795C106.849 333.214 145.571 361 204.98 361C251.111 361 296.483 344.281 307.63 337.323C314.018 333.323 324.492 326.779 334.335 316.69C339.246 330.518 348.199 341.824 360.911 350.107C368.559 355.086 377.686 357.608 388.029 357.608C413.105 357.608 446.938 342.302 488.593 312.125C519.362 289.818 547.502 264.206 558.888 252.422C584.42 226.027 595.568 185.544 587.311 149.235L587.289 149.279ZM544.808 238.811C513.669 270.989 409.454 358.369 371.602 333.692C333.727 309.015 356.152 253.922 356.152 253.922C356.152 253.922 373.774 173.521 395.439 169.716C407.194 167.651 415.3 172.543 420.819 179.282C429.902 190.371 431.206 205.916 424.948 218.809C415.56 238.181 400.067 271.663 402.892 276.316C406.89 282.925 441.853 264.51 441.853 264.51C457.085 256.705 509.584 215.504 518.145 190.219C526.685 164.933 512.235 125.254 437.768 128.037C363.67 130.798 290.594 154.432 279.447 177.13C268.299 199.807 300.633 207.242 300.633 207.242C300.633 207.242 338.92 218.396 339.659 254.835C340.398 291.274 315.126 309.494 297.287 320.647C279.447 331.801 136.727 378.654 115.171 278.621C101.047 213.047 138.987 149.018 166.822 112.687L83.9026 135.908C83.9026 135.908 -3.01547 161.824 25.2764 117.601C36.3367 100.316 54.1115 88.4454 74.1026 83.8144C145.419 67.2907 353.892 20.9373 455.782 19.6111C462.757 19.5241 464.148 29.4601 457.433 31.3299L223.276 96.9247C215.366 104.773 209.434 118.058 196.548 144.257C175.797 186.479 153.176 266.054 184.293 279.838C213.193 292.644 253.284 289.709 276.578 272.924C295.157 259.531 273.623 250.595 273.623 250.595C273.623 250.595 233.38 236.42 227.687 194.197C225.058 174.63 233.684 157.584 243.723 144.887C254.349 131.451 267.843 122.036 284.249 114.536C324.166 96.2725 431.749 58.4853 501.566 84.2928C585.529 115.34 583.356 199.002 544.808 238.833V238.811Z" fill="white"/>
</svg>
