<?xml version="1.0" encoding="UTF-8"?><svg id="Layer_2" xmlns="http://www.w3.org/2000/svg" viewBox="0 0 200.11 67.18"><defs><style>.cls-1{fill:#6b7280;stroke-width:0px;}</style></defs><g id="Layer_1-2"><path class="cls-1" d="M55.31,31.91c-.22-.33-.22-.77,0-1.1,1.28-1.94,1.06-4.58-.64-6.28l-9.37-9.37c-.16-.16-.35-.27-.57-.31-.35-.06-.69.05-.93.29l-1.83,1.83c-.4.4-1.06.4-1.46,0l-1.65-1.65c-.4-.4-.4-1.06,0-1.46l1.83-1.83c.4-.4.4-1.06,0-1.46L31.71,1.57C30.77.64,29.53.04,28.2,0s-2.7.49-3.67,1.46L1.56,24.43C.66,25.33.07,26.52,0,27.79c-.06,1.09.23,2.14.81,3.02.22.33.22.76,0,1.1-1.27,1.94-1.06,4.58.64,6.28l9.37,9.37c.16.16.35.27.57.31.35.06.69-.05.93-.29l1.83-1.83c.4-.4,1.06-.4,1.46,0l1.65,1.65c.4.4.4,1.06,0,1.46l-1.8,1.8c-.16.16-.27.35-.31.57-.06.35.04.69.29.93l8.98,8.98c.94.94,2.18,1.54,3.51,1.57s2.7-.49,3.67-1.46l22.97-22.97c.9-.9,1.49-2.09,1.55-3.36.06-1.09-.23-2.14-.81-3.02ZM53.21,32.09l-23.36,23.36c-.42.42-.96.71-1.55.76-.73.06-1.42-.19-1.93-.7l-6.65-6.65c-.4-.4-.4-1.06,0-1.46l8.6-8.6c1.96-1.96,2.14-5.06.42-7.22-.1-.12-.08-.32.04-.44l11.75-11.75c.4-.4,1.06-.4,1.46,0l11.23,11.23c.4.4.4,1.06,0,1.46ZM2.93,30.63L26.29,7.27c.42-.42.96-.71,1.55-.76.73-.06,1.42.19,1.93.7l6.65,6.65c.4.4.4,1.06,0,1.46l-8.6,8.6c-1.96,1.96-2.14,5.06-.42,7.22.1.12.08.32-.04.44l-11.75,11.75c-.4.4-1.06.4-1.46,0l-11.23-11.23c-.4-.4-.4-1.06,0-1.46Z"/><path class="cls-1" d="M70.07,5.28v-3.07h18.63v3.07h-7.37v24.1h-3.88V5.28h-7.37Z"/><path class="cls-1" d="M93.87,7.95c5.04,0,7.64,2.91,8.58,5.12v11.68c-.93,2.21-3.53,5.16-8.58,5.16s-7.68-2.95-8.62-5.16v-11.68c.93-2.21,3.61-5.12,8.62-5.12ZM93.83,27.01c2.68,0,4.39-1.44,5.04-2.99v-10.21c-.66-1.51-2.37-2.99-5.04-2.99s-4.35,1.47-4.97,2.99v10.21c.62,1.55,2.37,2.99,4.97,2.99Z"/><path class="cls-1" d="M109.97,11.21v13.74c.35.66,1.24,1.98,4.15,1.98.74,0,1.47-.08,1.79-.12v2.6c-.47.12-1.55.35-3.03.35-4.31,0-5.86-2.13-6.48-3.57v-14.98h-2.56v-2.76h2.56v-4.42h3.57v4.42h5.94v2.76h-5.94Z"/><path class="cls-1" d="M134.44,13.08v16.3h-3.49v-1.79c-1.28,1.24-3.34,2.33-6.21,2.33-4.7,0-6.64-2.44-7.18-3.26v-6.05c.54-.97,2.48-3.45,7.14-3.45,2.76,0,4.81.89,6.13,2.02v-5.36c-.66-1.55-2.37-2.99-4.97-2.99s-4,1.4-4.5,2.1v1.9h-3.38v-3.07c.62-.89,2.83-3.8,7.88-3.8s7.64,2.91,8.58,5.12ZM130.83,24.68v-2.37c-.81-1.32-2.64-2.48-5.39-2.48-2.48,0-3.76,1.09-4.31,1.75v3.65c.47.62,1.75,1.94,4.31,1.94,2.76,0,4.58-1.16,5.39-2.48Z"/><path class="cls-1" d="M141.99,2.21v27.16h-3.57V2.21h3.57Z"/><path class="cls-1" d="M73.5,51.92v2.83c.7,1.4,2.6,3.1,5.7,3.1s4.93-1.75,5.67-3.1v-3.42c-.66-1.16-1.59-2.17-4.58-2.91l-2.68-.66c-5.39-1.28-6.87-3.03-7.88-4.73v-5.2c1.01-1.86,3.69-5.12,9.47-5.12s8.42,3.34,9.39,5.12v3.53h-3.73v-2.48c-.7-1.4-2.6-3.1-5.67-3.1s-5.04,1.79-5.7,3.1v2.72c.66,1.16,1.59,2.02,4.7,2.83l2.56.7c5.36,1.36,6.83,3.07,7.84,4.77v5.9c-1.05,1.9-3.69,5.16-9.39,5.16s-8.46-3.34-9.47-5.16v-3.88h3.76Z"/><path class="cls-1" d="M107.64,39.51v2.13l-7.72,22.43c-1.28,1.75-4,2.95-6.79,2.95-1.09,0-2.06-.16-2.48-.27v-2.64c.54.04,1.32.08,1.82.08,1.94,0,3.61-.81,4.35-1.75l.58-1.86-6.83-18.82v-2.25h3.34l4.97,15.87h.54l5.16-15.87h3.07Z"/><path class="cls-1" d="M126.95,43.39v17.04h-3.57v-16.18c-.54-.89-1.98-2.29-4.58-2.29-2.37,0-4.04.89-4.97,2.02v16.45h-3.57v-20.92h3.38v1.71c1.4-1.24,3.38-2.17,6.02-2.17,4.54,0,6.56,2.79,7.3,4.35Z"/><path class="cls-1" d="M134.52,50.91v4.11c.66,1.59,2.37,3.03,4.97,3.03s4.39-1.44,5.04-3.03v-1.55h3.38v2.72c-.81,1.79-3.38,4.77-8.42,4.77s-7.64-2.95-8.58-5.16v-11.68c.93-2.21,3.57-5.12,8.58-5.12s7.61,2.95,8.42,4.73v7.18h-13.39ZM134.52,44.9v3.45h10.01v-3.45c-.66-1.55-2.37-3.03-5.04-3.03s-4.31,1.47-4.97,3.03Z"/><path class="cls-1" d="M155.3,39.51v2.76c1.13-1.47,3.1-2.79,6.25-2.79.16,0,.39,0,.81.04v3.34c-.47-.04-.78-.04-.93-.04-2.95,0-4.93,1.01-5.94,2.21v15.41h-3.61v-20.92h3.41Z"/><path class="cls-1" d="M180.42,39.51v22.82c-.97,2.25-3.57,4.85-8.58,4.85s-7.3-2.76-8.07-4.15v-3.14h3.49v2.17c.5.89,1.9,2.29,4.58,2.29s4.27-1.2,4.97-2.76v-5.2c-1.36,1.2-3.3,2.1-5.86,2.1-4.5,0-6.56-2.79-7.3-4.35v-10.75c.74-1.55,2.79-4.35,7.3-4.35,2.64,0,4.62.93,5.98,2.17v-1.71h3.49ZM176.81,53.52v-9.51c-.93-1.13-2.64-2.06-4.93-2.06-2.68,0-4.11,1.4-4.62,2.29v9.04c.5.89,1.94,2.29,4.62,2.29,2.37,0,4.04-.97,4.93-2.06Z"/><path class="cls-1" d="M200.11,39.51v2.13l-7.72,22.43c-1.28,1.75-4,2.95-6.79,2.95-1.09,0-2.06-.16-2.48-.27v-2.64c.54.04,1.32.08,1.82.08,1.94,0,3.61-.81,4.35-1.75l.58-1.86-6.83-18.82v-2.25h3.34l4.97,15.87h.54l5.16-15.87h3.07Z"/></g></svg>