<svg width="118" height="28" viewBox="0 0 118 28" fill="none" xmlns="http://www.w3.org/2000/svg">
<g id="svg883" clip-path="url(#clip0_31_6739)">
<path id="Vector" d="M59.8986 7.63254H54.1119V26.505H59.8986V7.63254Z" fill="#6B7280"/>
<path id="Vector_2" d="M46.2977 10.7655H46.1868V7.63255H40.6957V26.505H46.4451V17.8437C46.4451 13.8985 48.8047 12.1664 52.4163 12.6458H52.5272V7.66978C52.2317 7.55886 51.8997 7.5224 51.3482 7.5224C49.0987 7.5224 47.5876 8.55406 46.2977 10.7663V10.7655Z" fill="#6B7280"/>
<path id="Vector_3" d="M36.0501 9.36697C34.4654 7.89239 32.3633 7.08102 29.7104 7.08102C24.0347 7.08102 20.0896 11.3931 20.0896 17.0338C20.0896 22.6746 23.8501 27.0604 30.0789 27.0604C32.4385 27.0604 34.3172 26.4328 35.8655 25.3647C37.5239 24.2229 38.703 22.5637 39.0357 20.9053H33.5074C32.9559 22.1565 31.8118 22.8942 30.1161 22.8942C27.5734 22.8942 26.0251 21.2357 25.7304 18.693H39.3313C39.3685 14.637 38.2996 11.3938 36.0509 9.36775L36.0501 9.36697ZM25.7692 14.9317C26.2098 12.6823 27.426 11.2084 29.8229 11.2084C31.8505 11.2084 33.2514 12.7195 33.4725 14.9317H25.7692Z" fill="#6B7280"/>
<path id="Vector_4" d="M87.876 7.11594C81.8683 7.11594 77.8495 11.428 77.8495 17.1052C77.8495 22.7825 81.866 27.0945 87.876 27.0945C93.886 27.0945 97.9025 22.7452 97.9025 17.1052C97.9025 11.4652 93.886 7.11594 87.876 7.11594ZM87.8395 22.8546C85.1122 22.8546 83.6749 20.5702 83.6749 17.1052C83.6749 13.6402 85.1122 11.3558 87.8395 11.3558C90.5669 11.3558 92.0779 13.6053 92.0779 17.1052C92.0802 20.5702 90.5684 22.8546 87.8395 22.8546Z" fill="#6B7280"/>
<path id="Vector_5" d="M110.581 7.0787C108.002 7.0787 106.195 8.18406 104.832 10.2117H104.721V7.63254H99.156V26.505H104.905V16.0006C104.905 13.6038 106.306 11.9081 108.37 11.9081C110.435 11.9081 111.392 13.3082 111.392 15.2994V26.505H117.142V14.1941C117.142 10.0279 114.636 7.07948 110.58 7.07948L110.581 7.0787Z" fill="#6B7280"/>
<path id="Vector_6" d="M59.8986 0.923645H54.1119V6.04782H59.8986V0.923645Z" fill="#6B7280"/>
<path id="Vector_7" d="M68.4893 21.8602L77.2243 12.0555V7.63254H61.4856V12.1664H70.3307V12.2766L61.4856 22.1557V26.505H77.6299V21.9711H68.4893V21.8602Z" fill="#6B7280"/>
<path id="Vector_8" d="M15.3905 7.63254L10.7961 19.6006L6.20176 7.63254H0.395752L7.55145 26.2715C7.60575 26.4134 7.7415 26.5065 7.89353 26.5065H13.6995C13.8508 26.5065 13.9873 26.4134 14.0416 26.2715L21.1973 7.63254H15.3913H15.3905Z" fill="#6B7280"/>
</g>
<defs>
<clipPath id="clip0_31_6739">
<rect width="116.746" height="26.1716" fill="white" transform="translate(0.395752 0.923645)"/>
</clipPath>
</defs>
</svg>
