<svg width="113" height="20" viewBox="0 0 113 20" fill="none" xmlns="http://www.w3.org/2000/svg">
<g id="Vivitar 1" clip-path="url(#clip0_43_144898)">
<g id="Group">
<g id="Group_2">
<path id="Vector" d="M15.9635 0.34317L11.3707 10.9618L6.77819 0.34317H0.638672L10.1325 19.7921H12.6091L22.1379 0.34317H15.9635Z" fill="#6B7280"/>
<path id="Vector_2" d="M29.5003 0.354095H23.9836V19.7802H29.5003V0.354095Z" fill="#6B7280"/>
<path id="Vector_3" d="M47.704 0.332825L41.98 12.9684L36.2183 0.332825H31.429L40.8168 19.7834H43.1453L52.5571 0.332825H47.704Z" fill="#6B7280"/>
<path id="Vector_4" d="M58.81 0.354095H54.7256V19.7802H58.81V0.354095Z" fill="#6B7280"/>
<g id="Group_3">
<g id="Clip path group">
<mask id="mask0_43_144898" style="mask-type:luminance" maskUnits="userSpaceOnUse" x="0" y="0" width="113" height="20">
<g id="SVGID_2_">
<path id="Vector_5" d="M112.092 0.210968H0.638672V19.808H112.092V0.210968Z" fill="white"/>
</g>
</mask>
<g mask="url(#mask0_43_144898)">
<path id="Vector_6" d="M106.986 11.5416C107.878 10.9681 108.532 10.2473 108.951 9.3788C109.371 8.51002 109.581 7.58536 109.581 6.60999C109.581 5.5662 109.328 4.58021 108.822 3.65473C108.445 2.97868 107.952 2.38741 107.341 1.882C106.727 1.3766 105.962 1.00096 105.047 0.752892C104.132 0.502645 102.889 0.379974 101.322 0.379974H96.3752V19.7965H98.3282V2.15297H101.72C102.73 2.15297 103.583 2.24402 104.276 2.42884C104.97 2.61367 105.502 2.83747 105.869 3.10435C106.383 3.46227 106.806 3.95704 107.141 4.58729C107.475 5.21591 107.642 5.89523 107.642 6.62199C107.642 7.2138 107.517 7.79362 107.27 8.362C107.021 8.93337 106.68 9.40933 106.249 9.78988C105.816 10.1702 105.369 10.449 104.912 10.6246C104.454 10.7988 103.861 10.9179 103.134 10.9776C102.696 11.0128 101.733 11.034 100.243 11.0408L106.8 19.8077H109.254L103.801 12.5955C105.033 12.4674 106.097 12.1171 106.986 11.5416Z" fill="#6B7280"/>
</g>
</g>
<g id="Clip path group_2">
<mask id="mask1_43_144898" style="mask-type:luminance" maskUnits="userSpaceOnUse" x="0" y="0" width="113" height="20">
<g id="SVGID_2__2">
<path id="Vector_7" d="M112.092 0.210968H0.638672V19.808H112.092V0.210968Z" fill="white"/>
</g>
</mask>
<g mask="url(#mask1_43_144898)">
<path id="Vector_8" d="M94.3322 19.7911L84.9315 0.36554H82.5463L73.156 19.8022H75.849L83.7907 3.52362L91.6577 19.7949L94.3322 19.7911Z" fill="#6B7280"/>
</g>
</g>
<g id="Clip path group_3">
<mask id="mask2_43_144898" style="mask-type:luminance" maskUnits="userSpaceOnUse" x="0" y="0" width="113" height="20">
<g id="SVGID_2__3">
<path id="Vector_9" d="M112.092 0.210968H0.638672V19.808H112.092V0.210968Z" fill="white"/>
</g>
</mask>
<g mask="url(#mask2_43_144898)">
<path id="Vector_10" d="M90.7493 12.9003H81.1802L79.8777 15.303H90.5219L90.7493 12.9003Z" fill="#6B7280"/>
</g>
</g>
<g id="Clip path group_4">
<mask id="mask3_43_144898" style="mask-type:luminance" maskUnits="userSpaceOnUse" x="0" y="0" width="113" height="20">
<g id="SVGID_2__4">
<path id="Vector_11" d="M112.092 0.210968H0.638672V19.808H112.092V0.210968Z" fill="white"/>
</g>
</mask>
<g mask="url(#mask3_43_144898)">
<path id="Vector_12" d="M110.896 0.210968C111.102 0.210968 111.3 0.26249 111.488 0.365805C111.676 0.469121 111.823 0.616325 111.931 0.807418C112.039 0.998784 112.092 1.19969 112.092 1.41014C112.092 1.61868 112.039 1.81768 111.932 2.00659C111.826 2.19605 111.678 2.3438 111.49 2.44984C111.3 2.55615 111.101 2.60931 110.893 2.60931C110.684 2.60931 110.486 2.55615 110.297 2.44984C110.107 2.3438 109.96 2.19605 109.854 2.00659C109.747 1.81768 109.694 1.61868 109.694 1.41014C109.694 1.2016 109.748 1.00124 109.856 0.809054C109.965 0.616871 110.113 0.469121 110.301 0.365805C110.489 0.26249 110.688 0.210968 110.896 0.210968ZM110.893 0.480843C110.637 0.480843 110.421 0.570801 110.243 0.750718C110.065 0.930634 109.976 1.15062 109.976 1.41014C109.976 1.66993 110.065 1.88964 110.244 2.06956C110.423 2.24948 110.639 2.33943 110.893 2.33943C111.146 2.33943 111.362 2.24948 111.541 2.06956C111.72 1.88964 111.81 1.66993 111.81 1.41014C111.81 1.15253 111.721 0.93336 111.543 0.752353C111.365 0.571346 111.148 0.480843 110.893 0.480843ZM110.381 0.735452H110.96C111.073 0.735452 111.156 0.744448 111.209 0.762985C111.285 0.787519 111.342 0.828954 111.382 0.887291C111.422 0.945627 111.442 1.01868 111.442 1.10646C111.442 1.19451 111.424 1.26402 111.387 1.315C111.35 1.36625 111.283 1.40823 111.188 1.44094V1.44694C111.28 1.47584 111.343 1.52054 111.378 1.58188C111.398 1.62277 111.413 1.71491 111.421 1.85802C111.427 1.95616 111.431 2.01531 111.436 2.03576C111.44 2.0562 111.448 2.07992 111.461 2.10636H111.181C111.169 2.08592 111.161 2.06547 111.157 2.04503C111.151 2.0164 111.146 1.96216 111.142 1.88256C111.137 1.75989 111.122 1.6792 111.096 1.64021C111.059 1.58488 110.992 1.55734 110.896 1.55734H110.654V2.10636H110.381L110.381 0.735452ZM110.654 0.959257V1.33654H110.899C110.999 1.33654 111.068 1.31964 111.106 1.28583C111.144 1.2523 111.163 1.20351 111.163 1.14026C111.163 1.08111 111.146 1.03586 111.113 1.00533C111.081 0.974795 111.02 0.959257 110.93 0.959257H110.654Z" fill="#6B7280"/>
</g>
</g>
<g id="Clip path group_5">
<mask id="mask4_43_144898" style="mask-type:luminance" maskUnits="userSpaceOnUse" x="0" y="0" width="113" height="20">
<g id="SVGID_2__5">
<path id="Vector_13" d="M112.092 0.210968H0.638672V19.808H112.092V0.210968Z" fill="white"/>
</g>
</mask>
<g mask="url(#mask4_43_144898)">
<path id="Vector_14" d="M66.9738 3.34123V19.7851H70.1992V3.34123H75.0913V0.334442H62.0288V3.34123H66.9738Z" fill="#6B7280"/>
</g>
</g>
</g>
</g>
</g>
</g>
<defs>
<clipPath id="clip0_43_144898">
<rect width="111.453" height="19.597" fill="white" transform="translate(0.638672 0.210968)"/>
</clipPath>
</defs>
</svg>
