<?xml version="1.0" encoding="UTF-8"?><svg id="Layer_2" xmlns="http://www.w3.org/2000/svg" viewBox="0 0 51.42 58.41"><defs><style>.cls-1{stroke-dasharray:0 0 0 0 11.96 9.97 4.98 2.99;}.cls-1,.cls-2,.cls-3,.cls-4{fill:none;stroke:#000;stroke-linecap:round;stroke-miterlimit:10;}.cls-2{stroke-width:.5px;}.cls-3{stroke-width:2px;}</style></defs><g id="Layer_1-2"><path class="cls-3" d="M50.42,42.02v-25.72c0-.87-.46-1.67-1.22-2.11L26.92,1.33c-.75-.43-1.68-.43-2.43,0L2.22,14.19c-.75.43-1.22,1.24-1.22,2.11v25.72c0,.87.46,1.67,1.22,2.11l22.28,12.86c.75.43,1.68.43,2.43,0l22.28-12.86c.75-.43,1.22-1.24,1.22-2.11Z"/><path class="cls-1" d="M4,40.93v-23.56c0-.47.25-.9.65-1.13L25.05,4.47c.41-.23.9-.23,1.31,0l20.4,11.78c.41.23.65.67.65,1.13v23.56c0,.47-.25.9-.65,1.13l-20.4,11.78c-.41.23-.9.23-1.31,0l-20.4-11.78c-.41-.23-.65-.67-.65-1.13Z"/><polyline class="cls-3" points="1.71 15.39 25.71 29.25 49.62 15.39"/><line class="cls-3" x1="25.78" y1="29.34" x2="25.78" y2="57.41"/><polyline class="cls-4" points="12.23 49.51 12.23 22.19 36.92 7.3"/><polyline class="cls-4" points="39.34 49.37 39.34 21.24 14.41 6.89"/><ellipse class="cls-4" cx="32.38" cy="13.63" rx="5.41" ry="1.48"/><ellipse class="cls-4" cx="20.17" cy="13.77" rx="5.41" ry="1.48"/><path class="cls-4" d="M25.93,13.61s.83,1.72-.83,3.9c-1.27,1.67-2.24,3.43-2.03,5.09"/><path class="cls-4" d="M26.6,13.71s-.83,1.72.83,3.9c1.27,1.67,2.24,3.43,2.03,5.09"/><polyline class="cls-2" points="6.12 21.46 22.76 30.92 22.83 48.6"/></g></svg>