<?xml version="1.0" encoding="UTF-8"?><svg id="Layer_2" xmlns="http://www.w3.org/2000/svg" viewBox="0 0 271.52 166.04"><defs><style>.cls-1{fill:#000;stroke-width:0px;}</style></defs><g id="Layer_2-2"><path class="cls-1" d="M270.28,68.66c-4-17.55-16.9-31.17-36.34-38.35-8.23-3.04-17.87-4.58-28.68-4.58-.59,0-1.17,0-1.76.01l9.44-2.64c5.73-1.6,9.3-7.05,8.49-12.94C220.62,4.27,215.73,0,209.75,0h-.11c-15.65.2-64.28,3.51-177.56,29.76-11.79,2.73-21.75,9.64-28.03,19.47-4.4,6.87-5.21,12.94-2.42,18.04,2.81,5.13,8.43,7.74,16.7,7.74,9.7,0,21.76-3.5,22.75-3.8l15.09-4.23c-9.46,17.42-16.98,39.91-11.99,63.09,5,23.19,22.82,35.97,50.16,35.97,21.23,0,42.11-7.69,47.24-10.89,2.94-1.84,7.76-4.85,12.29-9.49,2.26,6.36,6.38,11.56,12.23,15.37,3.52,2.29,7.72,3.45,12.48,3.45,11.54,0,27.11-7.04,46.28-20.92,14.16-10.26,27.11-22.04,32.35-27.46,11.75-12.14,16.88-30.76,13.08-47.46ZM250.73,109.84c-14.33,14.8-62.29,54.99-79.71,43.64-17.43-11.35-7.11-36.69-7.11-36.69,0,0,8.11-36.98,18.08-38.73,5.41-.95,9.14,1.3,11.68,4.4,4.18,5.1,4.78,12.25,1.9,18.18-4.32,8.91-11.45,24.31-10.15,26.45,1.84,3.04,17.93-5.43,17.93-5.43,7.01-3.59,31.17-22.54,35.11-34.17,3.93-11.63-2.72-29.88-36.99-28.6-34.1,1.27-67.73,12.14-72.86,22.58-5.13,10.43,9.75,13.85,9.75,13.85,0,0,17.62,5.13,17.96,21.89.34,16.76-11.29,25.14-19.5,30.27-8.21,5.13-73.89,26.68-83.81-19.33-6.5-30.16,10.96-59.61,23.77-76.32l-38.16,10.68S-1.38,74.43,11.64,54.09c5.09-7.95,13.27-13.41,22.47-15.54,32.82-7.6,128.76-28.92,175.65-29.53,3.21-.04,3.85,4.53.76,5.39l-107.76,30.17c-3.64,3.61-6.37,9.72-12.3,21.77-9.55,19.42-19.96,56.02-5.64,62.36,13.3,5.89,31.75,4.54,42.47-3.18,8.55-6.16-1.36-10.27-1.36-10.27,0,0-18.52-6.52-21.14-25.94-1.21-9,2.76-16.84,7.38-22.68,4.89-6.18,11.1-10.51,18.65-13.96,18.37-8.4,67.88-25.78,100.01-13.91,38.64,14.28,37.64,52.76,19.9,71.08Z"/></g></svg>