<svg xmlns="http://www.w3.org/2000/svg" version="1.1" xmlns:xlink="http://www.w3.org/1999/xlink" width="48" height="48"><svg width="48" height="48" viewBox="0 0 48 48" fill="none" xmlns="http://www.w3.org/2000/svg">
<g clip-path="url(#clip0_223_544)">
<rect width="48" height="48" rx="2.5" fill="#F4F3EF"></rect>
<path d="M42.4173 22.5108C41.8635 20.0798 40.0776 18.1931 37.3863 17.1986C36.2469 16.7775 34.9123 16.5641 33.4157 16.5641C33.334 16.5641 33.2538 16.5641 33.1721 16.5655L34.479 16.1998C35.2722 15.9782 35.7665 15.2233 35.6544 14.4074C35.5422 13.5915 34.8652 13 34.0373 13H34.0221C31.8555 13.0277 25.123 13.4862 9.44018 17.1224C7.80794 17.5005 6.42905 18.4577 5.55962 19.8194C4.95047 20.771 4.83834 21.6118 5.22459 22.3183C5.61362 23.0289 6.39167 23.3904 7.53659 23.3904C8.87949 23.3904 10.5491 22.9056 10.6862 22.8641L12.7753 22.2781C11.4656 24.6912 10.4245 27.8065 11.1153 31.0174C11.8076 34.2297 14.2746 36 18.0596 36C20.9988 36 23.8895 34.9348 24.5997 34.4915C25.0067 34.2366 25.674 33.8197 26.3011 33.1769C26.614 34.0579 27.1844 34.7782 27.9943 35.306C28.4816 35.6232 29.0631 35.7839 29.7221 35.7839C31.3197 35.7839 33.4753 34.8087 36.1292 32.8861C38.0896 31.4648 39.8824 29.8331 40.6078 29.0823C42.2345 27.4006 42.9448 24.8214 42.4187 22.5081L42.4173 22.5108ZM39.7107 28.2151C37.7268 30.2652 31.0871 35.8324 28.6754 34.2602C26.2624 32.688 27.6911 29.1778 27.6911 29.1778C27.6911 29.1778 28.8139 24.0553 30.1942 23.8129C30.9431 23.6813 31.4595 23.993 31.8112 24.4224C32.3899 25.1289 32.4729 26.1193 32.0742 26.9407C31.4761 28.175 30.489 30.3082 30.669 30.6046C30.9238 31.0257 33.1513 29.8524 33.1513 29.8524C34.1218 29.3552 37.4666 26.7302 38.012 25.1192C38.5561 23.5082 37.6355 20.9802 32.891 21.1575C28.1701 21.3334 23.5143 22.8391 22.8041 24.2853C22.0939 25.7301 24.1539 26.2038 24.1539 26.2038C24.1539 26.2038 26.5933 26.9144 26.6403 29.236C26.6874 31.5576 25.0773 32.7184 23.9407 33.4291C22.8041 34.1397 13.7111 37.1248 12.3378 30.7514C11.4379 26.5737 13.8551 22.4942 15.6286 20.1795L10.3456 21.6589C10.3456 21.6589 4.80788 23.3101 6.61041 20.4926C7.31508 19.3914 8.44754 18.635 9.72122 18.34C14.2649 17.2872 27.5471 14.334 34.0387 14.2495C34.4831 14.2439 34.5717 14.877 34.1439 14.9961L19.2253 19.1753C18.7214 19.6753 18.3434 20.5217 17.5225 22.1909C16.2003 24.8809 14.7592 29.9508 16.7417 30.829C18.583 31.6449 21.1372 31.4579 22.6213 30.3885C23.805 29.5352 22.4331 28.9659 22.4331 28.9659C22.4331 28.9659 19.8691 28.0628 19.5064 25.3727C19.3389 24.126 19.8885 23.04 20.5281 22.231C21.2051 21.375 22.0648 20.7752 23.11 20.2973C25.6532 19.1337 32.5075 16.7262 36.9557 18.3705C42.3052 20.3485 42.1667 25.6788 39.7107 28.2165V28.2151Z" fill="#22333B"></path>
</g>
<defs>
<clipPath id="SvgjsClipPath1001">
<rect width="48" height="48" rx="2.5" fill="white"></rect>
</clipPath>
</defs>
</svg><style>@media (prefers-color-scheme: light) { :root { filter: none; } }
@media (prefers-color-scheme: dark) { :root { filter: none; } }
</style></svg>