<svg width="32" height="32" viewBox="0 0 32 32" fill="none" xmlns="http://www.w3.org/2000/svg">
<g clip-path="url(#clip0_223_544)">
<rect width="32" height="32" rx="2.5" fill="#F4F3EF"/>
<path d="M29.0294 14.6162C28.6442 12.9251 27.4018 11.6126 25.5296 10.9207C24.737 10.6278 23.8086 10.4794 22.7675 10.4794C22.7106 10.4794 22.6548 10.4794 22.598 10.4804L23.5071 10.226C24.059 10.0718 24.4028 9.54662 24.3248 8.97904C24.2468 8.41147 23.7758 8 23.1999 8H23.1893C21.6821 8.01927 16.9986 8.33823 6.08882 10.8677C4.95335 11.1308 3.99412 11.7967 3.3893 12.7439C2.96555 13.4059 2.88754 13.9908 3.15624 14.4823C3.42686 14.9766 3.96812 15.2281 4.76458 15.2281C5.69877 15.2281 6.86025 14.8909 6.95559 14.862L8.40888 14.4543C7.49781 16.133 6.77357 18.3002 7.25415 20.5338C7.73569 22.7685 9.4519 24 12.085 24C14.1296 24 16.1405 23.259 16.6346 22.9506C16.9177 22.7733 17.3819 22.4833 17.8182 22.0361C18.0358 22.649 18.4326 23.1501 18.996 23.5172C19.335 23.7379 19.7395 23.8497 20.198 23.8497C21.3094 23.8497 22.8089 23.1713 24.6551 21.8338C26.0188 20.8451 27.266 19.7099 27.7707 19.1877C28.9023 18.0178 29.3964 16.2236 29.0304 14.6143L29.0294 14.6162ZM27.1466 18.5844C25.7665 20.0106 21.1476 23.8834 19.4699 22.7897C17.7912 21.696 18.7851 19.2542 18.7851 19.2542C18.7851 19.2542 19.5662 15.6907 20.5264 15.522C21.0474 15.4305 21.4066 15.6473 21.6513 15.946C22.0538 16.4375 22.1116 17.1265 21.8342 17.6979C21.4182 18.5565 20.7315 20.0405 20.8567 20.2467C21.0339 20.5396 22.5835 19.7234 22.5835 19.7234C23.2586 19.3775 25.5854 17.5514 25.9649 16.4307C26.3434 15.31 25.7029 13.5514 22.4025 13.6748C19.1183 13.7972 15.8795 14.8446 15.3854 15.8506C14.8914 16.8557 16.3244 17.1853 16.3244 17.1853C16.3244 17.1853 18.0214 17.6796 18.0541 19.2946C18.0869 20.9097 16.9668 21.7172 16.1761 22.2115C15.3854 22.7059 9.05993 24.7825 8.10455 20.3488C7.47855 17.4425 9.16009 14.6047 10.3938 12.9945L6.71868 14.0236C6.71868 14.0236 2.86635 15.1722 4.12028 13.2122C4.61049 12.4462 5.39829 11.92 6.28433 11.7148C9.44516 10.9824 18.685 8.92797 23.2008 8.86919C23.51 8.86533 23.5716 9.30571 23.274 9.38858L12.8959 12.2958C12.5453 12.6437 12.2824 13.2325 11.7113 14.3936C10.7915 16.265 9.78898 19.7919 11.1681 20.4028C12.449 20.9704 14.2259 20.8403 15.2583 20.0964C16.0818 19.5028 15.1273 19.1067 15.1273 19.1067C15.1273 19.1067 13.3437 18.4784 13.0914 16.6071C12.9749 15.7398 13.3572 14.9843 13.8021 14.4216C14.2731 13.8261 14.8712 13.4088 15.5983 13.0764C17.3675 12.2669 22.1357 10.5921 25.2301 11.736C28.9514 13.112 28.8551 16.82 27.1466 18.5854V18.5844Z" fill="#22333B"/>
</g>
<defs>
<clipPath id="clip0_223_544">
<rect width="32" height="32" rx="2.5" fill="white"/>
</clipPath>
</defs>
</svg>
